<?xml version="1.0" standalone="no"?>
<!DOCTYPE svg PUBLIC "-//W3C//DTD SVG 20010904//EN"
 "http://www.w3.org/TR/2001/REC-SVG-20010904/DTD/svg10.dtd">
<svg version="1.0" xmlns="http://www.w3.org/2000/svg"
 width="1800.000000pt" height="1800.000000pt" viewBox="0 0 1800.000000 1800.000000"
 preserveAspectRatio="xMidYMid meet">
<metadata>
Created by potrace 1.11, written by Peter Selinger 2001-2013
</metadata>
<g transform="translate(0.000000,1800.000000) scale(0.100000,-0.100000)"
fill="#000000" stroke="none">
<path d="M8905 14384 c-117 -18 -162 -34 -253 -92 -123 -76 -161 -124 -344
-442 -74 -129 -161 -280 -193 -335 -32 -55 -184 -318 -338 -585 -154 -267
-329 -570 -390 -675 -60 -104 -167 -289 -237 -410 -390 -677 -370 -644 -412
-666 -22 -11 -63 -36 -93 -55 -30 -18 -59 -34 -65 -34 -5 0 -10 -5 -10 -12 0
-6 -3 -8 -6 -5 -4 4 -19 -2 -34 -13 -16 -11 -30 -20 -33 -20 -3 0 -36 -19 -73
-42 -38 -23 -94 -55 -124 -71 -30 -16 -62 -35 -70 -42 -8 -6 -33 -21 -55 -32
-101 -51 -155 -85 -149 -95 4 -6 2 -8 -3 -5 -12 7 -96 -36 -88 -45 3 -2 -1 -5
-7 -5 -20 0 -168 -84 -168 -94 0 -6 -4 -8 -8 -5 -5 3 -24 -5 -43 -17 -64 -41
-74 -47 -116 -67 -24 -11 -43 -25 -43 -31 0 -6 -4 -7 -10 -4 -5 3 -10 1 -10
-4 0 -6 -3 -10 -7 -9 -5 2 -26 -8 -48 -22 -22 -13 -48 -28 -58 -32 -10 -4 -16
-12 -12 -18 3 -5 0 -7 -8 -4 -8 3 -22 -2 -30 -11 -9 -9 -20 -16 -24 -16 -24
-3 -83 -41 -77 -51 4 -7 3 -8 -5 -4 -7 5 -38 -8 -72 -28 -33 -20 -65 -36 -70
-36 -5 0 -9 -4 -9 -10 0 -5 -4 -10 -9 -10 -4 0 -48 -23 -97 -52 -49 -28 -115
-66 -147 -83 -31 -17 -55 -34 -52 -37 3 -2 -1 -5 -7 -5 -11 0 -117 -59 -297
-165 -25 -15 -64 -37 -86 -49 -22 -12 -43 -27 -47 -33 -4 -6 -8 -8 -8 -3 0 4
-18 -4 -41 -19 -23 -14 -62 -37 -87 -51 -53 -30 -80 -45 -172 -98 -36 -21 -79
-46 -97 -56 -132 -75 -230 -170 -285 -275 -73 -138 -97 -314 -63 -459 33 -144
125 -289 232 -367 26 -20 280 -169 563 -333 283 -164 587 -339 675 -390 236
-137 796 -461 900 -520 50 -29 146 -85 215 -124 69 -40 228 -132 354 -204 200
-115 232 -137 255 -175 15 -23 31 -39 36 -35 4 5 5 3 1 -4 -8 -14 53 -127 79
-145 5 -4 6 -8 1 -8 -4 0 -1 -11 8 -25 9 -13 27 -44 40 -67 122 -216 184 -316
192 -310 5 4 6 3 2 -2 -4 -5 3 -27 16 -50 13 -22 32 -57 44 -77 11 -20 26 -47
34 -60 7 -13 15 -26 18 -29 3 -3 11 -16 18 -30 7 -14 23 -43 36 -65 26 -43 35
-58 86 -150 18 -33 40 -71 48 -83 28 -44 53 -87 58 -104 4 -10 10 -18 15 -18
5 0 9 -7 9 -15 0 -8 9 -24 20 -35 11 -11 17 -20 14 -20 -3 0 5 -18 17 -40 12
-21 27 -36 32 -33 6 3 7 1 3 -5 -8 -14 78 -165 88 -155 4 4 4 0 0 -10 -4 -11
0 -19 10 -23 9 -3 14 -9 12 -13 -3 -4 4 -20 15 -37 11 -16 24 -39 30 -52 5
-14 14 -20 21 -16 7 4 8 3 4 -5 -4 -6 -1 -23 8 -36 15 -23 24 -38 83 -145 17
-30 52 -90 77 -133 25 -43 46 -80 46 -83 0 -14 38 -53 45 -46 5 4 5 2 2 -5 -4
-6 6 -35 22 -65 42 -77 99 -171 111 -185 5 -7 10 -18 10 -24 0 -7 6 -20 13
-28 8 -9 56 -90 108 -181 139 -246 176 -295 275 -366 257 -184 613 -160 834
56 75 73 84 87 330 515 213 370 272 472 370 640 29 50 62 108 74 130 13 22 74
128 136 235 62 107 155 267 205 355 51 88 122 211 159 274 36 62 66 115 66
118 0 2 17 32 39 66 21 34 109 186 196 337 200 349 196 344 240 364 32 15 35
20 23 34 -11 15 -11 15 3 4 14 -11 46 5 220 104 112 65 207 122 211 128 4 6 8
7 8 3 0 -4 20 6 45 23 25 17 45 28 45 24 0 -3 7 -1 15 6 16 14 10 34 -7 24 -7
-4 -8 -2 -4 5 6 9 11 9 21 1 13 -11 45 -4 45 11 0 5 3 8 8 7 15 -3 61 25 55
35 -3 6 -1 7 5 3 9 -5 76 26 92 44 3 3 36 21 73 40 37 19 78 44 90 55 12 11
23 19 25 17 3 -3 273 148 282 158 3 3 16 11 30 18 14 7 39 20 55 30 17 10 50
30 75 44 92 52 125 72 132 83 4 5 8 7 8 3 0 -6 220 118 230 131 3 3 12 7 20 9
8 2 22 10 31 18 8 8 20 14 25 14 20 1 133 77 126 85 -4 5 -1 5 5 1 16 -9 56
17 45 29 -4 5 -2 5 5 1 6 -3 29 3 50 16 21 12 59 33 86 48 26 15 44 31 40 36
-5 5 -4 6 1 2 5 -5 28 3 50 16 65 38 93 54 323 185 255 146 301 177 368 247
63 66 109 142 143 236 46 130 40 331 -15 463 -33 77 -95 165 -158 222 -54 51
-387 251 -834 504 -25 14 -266 153 -536 309 -584 338 -670 387 -1195 690 -223
128 -413 242 -422 254 -10 12 -24 35 -33 51 -25 50 -69 123 -85 143 -8 10 -16
25 -18 33 -2 8 -11 25 -20 39 -9 14 -27 45 -41 70 -13 25 -27 47 -30 50 -3 3
-13 19 -21 35 -24 48 -73 129 -83 136 -5 3 -8 9 -8 13 1 12 -33 76 -41 76 -4
0 -8 5 -8 10 0 11 -88 171 -99 180 -3 3 -13 19 -21 35 -42 84 -93 164 -101
160 -5 -4 -6 0 -3 8 2 7 -13 42 -35 78 -22 35 -54 91 -72 124 -17 33 -36 67
-43 75 -6 8 -17 26 -25 40 -74 128 -91 161 -91 169 0 6 -6 14 -12 18 -7 4 -22
26 -33 48 -11 22 -22 42 -25 45 -4 3 -14 21 -23 40 -10 19 -27 49 -37 65 -11
17 -23 37 -27 45 -30 63 -171 299 -176 295 -4 -3 -5 -2 -2 1 4 6 -22 64 -34
74 -3 3 -14 21 -25 40 -50 93 -81 147 -96 170 -9 14 -20 33 -23 43 -4 9 -10
17 -15 17 -5 0 -9 6 -9 13 -1 22 -109 197 -118 190 -4 -5 -5 -3 -2 4 4 6 -28
71 -70 145 -58 100 -95 151 -147 203 -145 144 -348 210 -551 179z m1145 -1864
c0 -5 -5 -10 -11 -10 -5 0 -7 5 -4 10 3 6 8 10 11 10 2 0 4 -4 4 -10z m-489
-600 c310 -310 566 -557 571 -553 6 3 8 1 4 -5 -8 -13 383 -404 397 -395 5 3
7 1 4 -4 -6 -10 326 -353 341 -353 4 0 13 -9 20 -20 7 -12 18 -18 24 -14 7 4
8 3 4 -4 -8 -13 82 -104 95 -96 5 3 6 -3 2 -12 -5 -14 -3 -16 11 -11 9 4 15 3
12 -1 -8 -14 63 -84 77 -76 7 4 9 3 4 -1 -10 -11 23 -46 36 -38 5 3 7 2 4 -4
-4 -6 6 -21 21 -35 15 -14 42 -42 60 -61 22 -24 39 -34 50 -31 12 4 13 3 4 -3
-9 -7 0 -22 38 -59 28 -27 56 -48 63 -46 7 2 9 0 4 -4 -10 -10 63 -85 76 -77
6 3 7 1 3 -5 -8 -13 33 -54 46 -46 5 3 7 1 6 -4 -4 -14 51 -74 63 -67 5 4 9 3
8 -2 -4 -21 3 -32 21 -38 11 -3 20 -12 20 -20 0 -8 9 -17 20 -20 11 -3 20 -12
20 -20 0 -8 9 -16 19 -20 11 -3 23 -14 26 -23 3 -9 21 -28 40 -42 19 -14 35
-31 35 -37 0 -12 13 -17 33 -14 5 1 6 -2 3 -7 -5 -8 12 -27 110 -120 13 -13
24 -26 24 -31 0 -4 11 -14 25 -21 13 -7 27 -21 31 -32 3 -10 11 -18 18 -18 7
0 19 -11 26 -25 7 -13 22 -27 32 -31 10 -3 16 -9 13 -13 -2 -4 7 -14 20 -21
14 -7 25 -17 25 -21 0 -15 83 -88 93 -82 6 3 7 1 3 -5 -3 -6 5 -19 19 -30 14
-11 25 -25 25 -32 0 -6 4 -9 9 -5 5 3 12 -4 16 -15 3 -11 13 -20 21 -20 8 0
12 -4 9 -10 -3 -5 0 -10 7 -10 8 0 20 -9 28 -20 10 -15 16 -16 23 -7 5 7 6 3
2 -10 -6 -22 2 -28 28 -24 5 1 6 -3 3 -8 -3 -5 1 -14 9 -21 8 -7 15 -18 15
-25 0 -6 -335 -348 -745 -759 -443 -443 -743 -751 -739 -758 4 -7 3 -8 -4 -4
-12 7 -379 -353 -375 -366 2 -5 -1 -8 -7 -8 -14 0 -180 -167 -173 -174 4 -3 1
-6 -5 -6 -15 0 -212 -196 -212 -211 0 -5 -5 -7 -10 -4 -6 3 -14 -4 -19 -17 -6
-13 -10 -20 -10 -15 -1 4 -9 -1 -19 -10 -11 -10 -17 -21 -15 -25 2 -5 -3 -8
-12 -8 -12 0 -15 -6 -10 -22 5 -17 4 -19 -3 -9 -9 12 -13 12 -27 -2 -9 -9 -13
-22 -9 -28 5 -8 3 -9 -6 -4 -13 8 -63 -42 -55 -56 3 -4 0 -11 -6 -15 -8 -4 -9
-3 -5 4 14 23 -7 12 -35 -18 -16 -16 -29 -35 -29 -42 0 -6 -2 -9 -5 -6 -10 10
-97 -81 -89 -93 4 -7 3 -9 -4 -5 -15 9 -75 -51 -66 -66 4 -7 3 -8 -5 -4 -12 8
-44 -18 -34 -28 4 -3 0 -6 -7 -6 -21 0 -62 -51 -55 -69 5 -12 3 -13 -6 -4 -9
9 -26 -3 -75 -53 -35 -35 -62 -70 -60 -76 1 -7 1 -10 -1 -5 -8 13 -25 7 -20
-7 4 -10 1 -13 -9 -9 -10 4 -17 -2 -21 -16 -3 -11 -9 -18 -14 -15 -12 7 -11
-9 1 -24 7 -9 7 -9 -2 -2 -14 11 -51 -6 -43 -21 4 -5 -1 -9 -10 -9 -11 0 -15
-5 -12 -14 4 -11 1 -13 -10 -9 -9 4 -14 2 -11 -3 3 -5 0 -15 -8 -22 -8 -7 -14
-10 -14 -6 0 4 -9 -2 -21 -14 -11 -12 -17 -27 -14 -32 4 -6 -1 -7 -11 -3 -10
3 -15 2 -12 -3 3 -5 0 -15 -8 -22 -8 -7 -14 -10 -14 -7 0 2 -9 -3 -20 -12 -11
-10 -20 -23 -20 -31 0 -7 -4 -11 -9 -8 -5 3 -11 -1 -15 -9 -6 -17 9 -29 27
-19 9 5 9 4 0 -6 -9 -10 -15 -11 -26 -1 -12 9 -21 6 -46 -19 -17 -18 -31 -36
-31 -41 0 -6 -3 -8 -7 -6 -5 3 -14 -1 -21 -9 -12 -13 -8 -18 12 -15 5 1 4 -5
-4 -13 -14 -18 -25 -22 -15 -6 3 6 -1 10 -10 10 -11 0 -15 -5 -11 -16 3 -8 2
-13 -3 -10 -5 3 -25 -10 -44 -29 -19 -19 -39 -35 -44 -35 -6 0 -303 293 -662
651 -396 395 -656 647 -663 643 -7 -4 -8 -3 -4 4 7 12 -182 209 -196 204 -5
-1 -7 4 -5 11 1 7 -7 11 -23 9 -18 -1 -21 0 -11 7 11 7 9 14 -13 36 -14 14
-31 23 -38 19 -6 -4 -8 -3 -5 3 9 15 -60 86 -74 77 -7 -4 -9 -3 -6 3 7 12 -38
65 -47 56 -3 -4 -6 -1 -6 5 0 17 -289 304 -299 298 -5 -3 -8 2 -7 11 0 9 -5
18 -13 21 -9 3 -11 0 -6 -8 5 -9 4 -11 -4 -6 -6 4 -9 11 -6 16 10 15 -66 83
-78 71 -6 -6 -15 -11 -21 -11 -5 0 -1 6 9 14 17 12 18 15 3 30 -19 19 -33 21
-22 4 4 -7 3 -8 -5 -4 -6 4 -9 12 -5 17 8 13 -36 50 -49 42 -6 -3 -7 -1 -3 6
8 13 -38 63 -48 53 -3 -3 -6 0 -6 7 0 15 -107 121 -115 113 -3 -3 -5 2 -5 11
0 19 -33 40 -45 29 -5 -4 -5 -1 -1 6 9 15 -91 115 -106 105 -6 -3 -8 -1 -4 5
8 14 -42 64 -56 56 -6 -4 -8 -2 -4 4 7 12 -38 62 -56 62 -6 0 -9 3 -6 6 3 3
-5 16 -19 30 -21 21 -27 23 -41 12 -15 -12 -15 -11 -4 4 12 15 6 24 -49 77
-34 33 -66 58 -72 54 -5 -3 -7 -2 -4 4 9 14 -32 55 -45 47 -6 -4 -8 -3 -5 3 9
14 -90 116 -103 108 -5 -3 -7 1 -4 9 6 16 -28 39 -42 28 -5 -4 -6 -3 -1 3 10
13 9 27 -3 20 -5 -3 -10 1 -10 9 0 15 -12 21 -33 17 -5 -1 -6 3 -2 9 10 15
-52 70 -73 64 -13 -5 -14 -4 -3 4 12 8 8 17 -22 46 -20 20 -37 32 -37 28 0 -4
-8 5 -18 21 -10 15 -22 24 -25 20 -4 -3 -7 -2 -7 4 0 19 -58 75 -71 67 -8 -4
-10 -3 -5 5 8 12 -16 41 -33 41 -6 0 -11 5 -11 10 0 6 -9 20 -19 31 -19 21
-17 23 415 456 239 239 431 440 427 446 -4 6 -1 7 6 2 13 -8 54 28 44 39 -4 3
-2 6 4 6 14 0 123 107 115 114 -3 3 -1 6 5 6 18 0 403 392 396 403 -3 5 -1 7
4 4 9 -6 403 376 403 390 0 2 -6 1 -12 -3 -8 -4 -10 -3 -5 2 5 5 13 9 18 9 16
0 249 236 243 246 -3 5 3 6 12 2 10 -3 15 -2 12 3 -3 5 12 23 33 39 35 27 55
56 27 39 -7 -4 -8 -3 -4 5 4 6 11 9 15 7 8 -5 43 23 58 47 4 7 23 25 41 40 19
15 31 27 28 27 -3 0 12 16 34 37 31 27 38 38 28 46 -9 6 -8 7 5 3 10 -3 26 3
37 14 11 11 18 20 15 20 -3 0 13 16 35 36 22 20 37 41 33 47 -3 6 -1 7 5 3 13
-8 129 110 124 126 -1 5 2 7 7 4 10 -7 91 71 83 79 -3 3 2 5 11 5 16 0 22 12
18 33 -1 5 3 6 8 3 13 -8 43 23 35 36 -4 6 -3 8 3 5 13 -8 65 42 57 55 -4 6
-3 8 4 4 6 -3 20 6 31 20 12 15 21 23 21 20 0 -4 12 7 28 25 15 18 26 37 24
42 -1 5 1 6 6 3 5 -3 30 17 56 43 27 27 44 51 39 53 -4 3 -2 3 5 2 7 -2 22 6
33 17 17 17 18 23 8 37 -11 14 -11 15 1 5 11 -10 18 -7 36 13 13 13 26 24 29
24 3 0 4 1 4 3 -3 5 155 157 163 157 5 0 6 5 3 10 -4 6 -11 7 -17 4 -7 -4 -8
-2 -4 5 4 6 12 9 17 6 8 -6 58 36 127 107 15 15 28 27 30 28 1 0 255 -252 563
-560z m-793 370 c-7 -10 -14 -17 -17 -15 -4 4 18 35 25 35 2 0 -1 -9 -8 -20z
m-83 -18 c-3 -3 -11 0 -18 7 -9 10 -8 11 6 5 10 -3 15 -9 12 -12z m55 15 c0
-2 -10 -12 -22 -23 l-23 -19 19 23 c18 21 26 27 26 19z m0 -40 c0 -2 -10 -12
-22 -23 l-23 -19 19 23 c18 21 26 27 26 19z m-69 -44 c13 -16 12 -17 -3 -4
-17 13 -22 21 -14 21 2 0 10 -8 17 -17z m-25 -19 c1 -9 0 -13 -4 -10 -3 4 -7
14 -8 22 -1 9 0 13 4 10 3 -4 7 -14 8 -22z m-81 -32 c-3 -3 -11 0 -18 7 -9 10
-8 11 6 5 10 -3 15 -9 12 -12z m-82 -82 c10 -12 9 -12 -4 -2 -9 6 -18 9 -21 6
-3 -3 -9 -1 -12 4 -9 15 22 8 37 -8z m57 16 c0 -2 -8 -10 -17 -17 -16 -13 -17
-12 -4 4 13 16 21 21 21 13z m1870 -20 c0 -3 -4 -8 -10 -11 -5 -3 -10 -1 -10
4 0 6 5 11 10 11 6 0 10 -2 10 -4z m-2066 -25 c-8 -8 -43 -8 -38 0 2 4 13 7
24 6 10 -1 17 -3 14 -6z m146 4 c0 -7 -30 -13 -34 -7 -3 4 4 9 15 9 10 1 19 0
19 -2z m45 -5 c3 -6 -1 -7 -9 -4 -18 7 -21 14 -7 14 6 0 13 -4 16 -10z m-268
-35 c0 -8 -4 -12 -9 -9 -5 3 -6 10 -3 15 9 13 12 11 12 -6z m41 -10 c-3 -3 -9
2 -12 12 -6 14 -5 15 5 6 7 -7 10 -15 7 -18z m160 0 c-3 -3 -9 2 -12 12 -6 14
-5 15 5 6 7 -7 10 -15 7 -18z m-167 -88 c-10 -9 -11 -8 -5 6 3 10 9 15 12 12
3 -3 0 -11 -7 -18z m93 15 c3 -5 -1 -9 -9 -9 -8 0 -12 4 -9 9 3 4 7 8 9 8 2 0
6 -4 9 -8z m-371 -37 c-3 -9 -8 -14 -10 -11 -3 3 -2 9 2 15 9 16 15 13 8 -4z
m320 0 c-3 -9 -8 -14 -10 -11 -3 3 -2 9 2 15 9 16 15 13 8 -4z m1711 -3 c3 -5
-1 -9 -9 -9 -8 0 -12 4 -9 9 3 4 7 8 9 8 2 0 6 -4 9 -8z m-2010 -52 c-6 -6
-10 -3 -10 10 0 13 4 16 10 10 7 -7 7 -13 0 -20z m141 21 c3 -5 2 -12 -3 -15
-5 -3 -9 1 -9 9 0 17 3 19 12 6z m-100 -11 c3 -5 1 -10 -4 -10 -6 0 -11 5 -11
10 0 6 2 10 4 10 3 0 8 -4 11 -10z m170 0 c-3 -5 -12 -10 -18 -10 -7 0 -6 4 3
10 19 12 23 12 15 0z m-334 -93 c-10 -9 -11 -8 -5 6 3 10 9 15 12 12 3 -3 0
-11 -7 -18z m109 -7 c0 -5 -2 -10 -4 -10 -3 0 -8 5 -11 10 -3 6 -1 10 4 10 6
0 11 -4 11 -10z m-100 -22 c0 -4 -4 -8 -9 -8 -6 0 -12 4 -15 8 -3 5 1 9 9 9 8
0 15 -4 15 -9z m280 8 c0 -2 -7 -7 -16 -10 -8 -3 -12 -2 -9 4 6 10 25 14 25 6z
m-580 -66 c0 -5 -5 -10 -11 -10 -5 0 -7 5 -4 10 3 6 8 10 11 10 2 0 4 -4 4
-10z m40 6 c0 -3 -4 -8 -10 -11 -5 -3 -10 -1 -10 4 0 6 5 11 10 11 6 0 10 -2
10 -4z m480 -6 c0 -5 -5 -10 -11 -10 -5 0 -7 5 -4 10 3 6 8 10 11 10 2 0 4 -4
4 -10z m-183 -15 c0 -8 -4 -12 -9 -9 -5 3 -6 10 -3 15 9 13 12 11 12 -6z m-77
-5 c0 -5 -2 -10 -4 -10 -3 0 -8 5 -11 10 -3 6 -1 10 4 10 6 0 11 -4 11 -10z
m-85 -48 c-3 -3 -11 0 -18 7 -9 10 -8 11 6 5 10 -3 15 -9 12 -12z m170 8 c-3
-5 -12 -10 -18 -10 -7 0 -6 4 3 10 19 12 23 12 15 0z m-265 -20 c0 -5 -5 -10
-11 -10 -5 0 -7 5 -4 10 3 6 8 10 11 10 2 0 4 -4 4 -10z m155 0 c3 -5 1 -10
-4 -10 -6 0 -11 5 -11 10 0 6 2 10 4 10 3 0 8 -4 11 -10z m45 0 c0 -5 -5 -10
-11 -10 -5 0 -7 5 -4 10 3 6 8 10 11 10 2 0 4 -4 4 -10z m-103 -25 c0 -8 -4
-12 -9 -9 -5 3 -6 10 -3 15 9 13 12 11 12 -6z m158 6 c3 -5 2 -12 -3 -15 -5
-3 -9 1 -9 9 0 17 3 19 12 6z m-415 -21 c0 -5 -2 -10 -4 -10 -3 0 -8 5 -11 10
-3 6 -1 10 4 10 6 0 11 -4 11 -10z m154 2 c2 -4 -5 -9 -17 -9 -17 -2 -19 0 -7
7 18 12 18 12 24 2z m326 4 c0 -3 -4 -8 -10 -11 -5 -3 -10 -1 -10 4 0 6 5 11
10 11 6 0 10 -2 10 -4z m-563 -35 c0 -11 -5 -18 -9 -15 -4 3 -5 11 -1 19 7 21
12 19 10 -4z m187 11 c3 -5 -1 -9 -9 -9 -8 0 -15 4 -15 9 0 4 4 8 9 8 6 0 12
-4 15 -8z m173 -11 c0 -11 -5 -18 -9 -15 -4 3 -5 11 -1 19 7 21 12 19 10 -4z
m2583 -16 c0 -5 -5 -3 -10 5 -5 8 -10 20 -10 25 0 6 5 3 10 -5 5 -8 10 -19 10
-25z m-2445 6 c-9 -8 -36 -10 -30 -2 2 4 11 8 20 8 8 0 13 -3 10 -6z m-619
-26 c-1 -8 -5 -17 -8 -21 -5 -4 -4 16 1 34 3 9 9 -1 7 -13z m84 -15 c0 -5 -2
-10 -4 -10 -3 0 -8 5 -11 10 -3 6 -1 10 4 10 6 0 11 -4 11 -10z m157 -5 c0 -8
-4 -12 -9 -9 -5 3 -6 10 -3 15 9 13 12 11 12 -6z m83 5 c0 -5 -2 -10 -4 -10
-3 0 -8 5 -11 10 -3 6 -1 10 4 10 6 0 11 -4 11 -10z m35 0 c3 -5 1 -10 -4 -10
-6 0 -11 5 -11 10 0 6 2 10 4 10 3 0 8 -4 11 -10z m159 1 c3 -5 -2 -15 -12
-22 -15 -12 -16 -12 -5 2 7 9 10 19 6 22 -3 4 -4 7 0 7 3 0 8 -4 11 -9z m46 3
c0 -8 -19 -13 -24 -6 -3 5 1 9 9 9 8 0 15 -2 15 -3z m-527 -29 c4 -8 3 -16 -1
-19 -4 -3 -9 4 -9 15 -2 23 3 25 10 4z m-157 -31 c1 -9 0 -13 -4 -10 -3 4 -7
14 -8 22 -1 9 0 13 4 10 3 -4 7 -14 8 -22z m259 17 c-9 -8 -36 -10 -30 -2 2 4
11 8 20 8 8 0 13 -3 10 -6z m100 0 c-9 -8 -36 -10 -30 -2 2 4 11 8 20 8 8 0
13 -3 10 -6z m241 -3 c3 -4 -1 -5 -10 -4 -8 1 -18 5 -22 8 -3 4 1 5 10 4 8 -1
18 -5 22 -8z m-80 -34 c1 -9 0 -13 -4 -10 -3 4 -7 14 -8 22 -1 9 0 13 4 10 3
-4 7 -14 8 -22z m-442 -2 c3 -5 -1 -9 -9 -9 -8 0 -12 4 -9 9 3 4 7 8 9 8 2 0
6 -4 9 -8z m56 2 c0 -8 -19 -13 -24 -6 -3 5 1 9 9 9 8 0 15 -2 15 -3z m26 -20
c1 -9 0 -13 -4 -10 -3 4 -7 14 -8 22 -1 9 0 13 4 10 3 -4 7 -14 8 -22z m120 0
c1 -9 0 -13 -4 -10 -3 4 -7 14 -8 22 -1 9 0 13 4 10 3 -4 7 -14 8 -22z m140
14 c3 -4 -1 -5 -10 -4 -8 1 -18 5 -22 8 -3 4 1 5 10 4 8 -1 18 -5 22 -8z
m-420 -23 c-1 -8 -5 -17 -8 -21 -5 -4 -4 16 1 34 3 9 9 -1 7 -13z m208 -13 c3
-5 -1 -9 -9 -9 -8 0 -12 4 -9 9 3 4 7 8 9 8 2 0 6 -4 9 -8z m87 -15 c-10 -9
-11 -8 -5 6 3 10 9 15 12 12 3 -3 0 -11 -7 -18z m-126 -7 c-3 -5 -12 -10 -18
-10 -7 0 -6 4 3 10 19 12 23 12 15 0z m190 0 c3 -5 1 -10 -4 -10 -6 0 -11 5
-11 10 0 6 2 10 4 10 3 0 8 -4 11 -10z m3502 -5 c0 -8 -4 -12 -9 -9 -5 3 -6
10 -3 15 9 13 12 11 12 -6z m-3333 -13 c3 -5 -1 -9 -9 -9 -8 0 -12 4 -9 9 3 4
7 8 9 8 2 0 6 -4 9 -8z m3012 -17 c-1 -8 -5 -17 -8 -21 -5 -4 -4 16 1 34 3 9
9 -1 7 -13z m-3306 -1 c0 -8 -19 -13 -24 -6 -3 5 1 9 9 9 8 0 15 -2 15 -3z
m-515 -52 c-3 -3 -11 0 -18 7 -9 10 -8 11 6 5 10 -3 15 -9 12 -12z m240 0 c-3
-3 -11 0 -18 7 -9 10 -8 11 6 5 10 -3 15 -9 12 -12z m245 12 c0 -8 -19 -13
-24 -6 -3 5 1 9 9 9 8 0 15 -2 15 -3z m160 2 c0 -2 -7 -7 -16 -10 -8 -3 -12
-2 -9 4 6 10 25 14 25 6z m105 -6 c-3 -5 -12 -10 -18 -10 -7 0 -6 4 3 10 19
12 23 12 15 0z m3399 2 c3 -5 -1 -9 -9 -9 -8 0 -12 4 -9 9 3 4 7 8 9 8 2 0 6
-4 9 -8z m-3803 -39 c13 -16 12 -17 -3 -4 -17 13 -22 21 -14 21 2 0 10 -8 17
-17z m59 3 c0 -2 -7 -7 -16 -10 -8 -3 -12 -2 -9 4 6 10 25 14 25 6z m-343 -31
c0 -8 -4 -12 -9 -9 -5 3 -6 10 -3 15 9 13 12 11 12 -6z m4243 -75 c0 -5 -5
-10 -11 -10 -5 0 -7 5 -4 10 3 6 8 10 11 10 2 0 4 -4 4 -10z m-4400 -20 c0 -5
-5 -10 -11 -10 -5 0 -7 5 -4 10 3 6 8 10 11 10 2 0 4 -4 4 -10z m160 4 c0 -8
-19 -13 -24 -6 -3 5 1 9 9 9 8 0 15 -2 15 -3z m4175 -92 c-3 -3 -11 0 -18 7
-9 10 -8 11 6 5 10 -3 15 -9 12 -12z m80 0 c-3 -3 -11 0 -18 7 -9 10 -8 11 6
5 10 -3 15 -9 12 -12z m45 8 c0 -5 -5 -10 -11 -10 -5 0 -7 5 -4 10 3 6 8 10
11 10 2 0 4 -4 4 -10z m-4135 -40 c3 -6 -1 -7 -9 -4 -18 7 -21 14 -7 14 6 0
13 -4 16 -10z m4135 -40 c0 -5 -2 -10 -4 -10 -3 0 -8 5 -11 10 -3 6 -1 10 4
10 6 0 11 -4 11 -10z m-69 -73 c-10 -9 -11 -8 -5 6 3 10 9 15 12 12 3 -3 0
-11 -7 -18z m84 13 c3 -5 1 -10 -4 -10 -6 0 -11 5 -11 10 0 6 2 10 4 10 3 0 8
-4 11 -10z m-235 -14 c0 -3 -4 -8 -10 -11 -5 -3 -10 -1 -10 4 0 6 5 11 10 11
6 0 10 -2 10 -4z m-3959 -43 c13 -16 12 -17 -3 -4 -17 13 -22 21 -14 21 2 0
10 -8 17 -17z m4175 -19 c1 -9 0 -13 -4 -10 -3 4 -7 14 -8 22 -1 9 0 13 4 10
3 -4 7 -14 8 -22z m54 16 c8 -5 11 -10 5 -10 -5 0 -17 5 -25 10 -8 5 -10 10
-5 10 6 0 17 -5 25 -10z m-95 -48 c-3 -3 -11 0 -18 7 -9 10 -8 11 6 5 10 -3
15 -9 12 -12z m202 -7 c0 -8 -4 -12 -9 -9 -5 3 -6 10 -3 15 9 13 12 11 12 -6z
m-137 -5 c0 -5 -2 -10 -4 -10 -3 0 -8 5 -11 10 -3 6 -1 10 4 10 6 0 11 -4 11
-10z m80 6 c0 -3 -4 -8 -10 -11 -5 -3 -10 -1 -10 4 0 6 5 11 10 11 6 0 10 -2
10 -4z m-5 -45 c-9 -8 -36 -10 -30 -2 2 4 11 8 20 8 8 0 13 -3 10 -6z m-5065
-15 c0 -2 -8 -10 -17 -17 -16 -13 -17 -12 -4 4 13 16 21 21 21 13z m4754 -4
c3 -5 -1 -9 -9 -9 -8 0 -12 4 -9 9 3 4 7 8 9 8 2 0 6 -4 9 -8z m189 -17 c-3
-9 -8 -14 -10 -11 -3 3 -2 9 2 15 9 16 15 13 8 -4z m61 -7 c-3 -4 -11 -5 -19
-1 -21 7 -19 12 4 10 11 0 18 -5 15 -9z m121 3 c-9 -8 -36 -10 -30 -2 2 4 11
8 20 8 8 0 13 -3 10 -6z m41 -37 c1 -9 0 -13 -4 -10 -3 4 -7 14 -8 22 -1 9 0
13 4 10 3 -4 7 -14 8 -22z m-146 0 c0 -8 -19 -13 -24 -6 -3 5 1 9 9 9 8 0 15
-2 15 -3z m65 -3 c-9 -8 -36 -10 -30 -2 2 4 11 8 20 8 8 0 13 -3 10 -6z m49 1
c3 -5 -1 -9 -9 -9 -8 0 -12 4 -9 9 3 4 7 8 9 8 2 0 6 -4 9 -8z m-469 -61 c3
-5 2 -12 -3 -15 -5 -3 -9 1 -9 9 0 17 3 19 12 6z m302 -33 c2 -17 0 -19 -7 -8
-5 8 -6 18 -4 22 8 12 10 10 11 -14z m77 10 c-3 -4 -11 -5 -19 -1 -21 7 -19
12 4 10 11 0 18 -5 15 -9z m56 6 c0 -8 -19 -13 -24 -6 -3 5 1 9 9 9 8 0 15 -2
15 -3z m86 -6 c3 -4 -1 -5 -10 -4 -8 1 -18 5 -22 8 -3 4 1 5 10 4 8 -1 18 -5
22 -8z m-5801 -17 c3 -5 2 -12 -3 -15 -5 -3 -9 1 -9 9 0 17 3 19 12 6z m82 -6
c0 -8 -4 -12 -9 -9 -5 3 -6 10 -3 15 9 13 12 11 12 -6z m320 0 c0 -8 -4 -12
-9 -9 -5 3 -6 10 -3 15 9 13 12 11 12 -6z m560 0 c0 -8 -4 -12 -9 -9 -5 3 -6
10 -3 15 9 13 12 11 12 -6z m163 9 c0 -8 -19 -13 -24 -6 -3 5 1 9 9 9 8 0 15
-2 15 -3z m4655 -13 c3 -5 2 -12 -3 -15 -5 -3 -9 1 -9 9 0 17 3 19 12 6z
m-140 -11 c3 -5 1 -10 -4 -10 -6 0 -11 5 -11 10 0 6 2 10 4 10 3 0 8 -4 11
-10z m-121 -46 c3 -8 2 -12 -4 -9 -6 3 -10 10 -10 16 0 14 7 11 14 -7z m222 1
c-1 -8 -5 -17 -8 -21 -5 -4 -4 16 1 34 3 9 9 -1 7 -13z m124 5 c0 -5 -5 -10
-11 -10 -5 0 -7 5 -4 10 3 6 8 10 11 10 2 0 4 -4 4 -10z m-243 -35 c0 -8 -4
-12 -9 -9 -5 3 -6 10 -3 15 9 13 12 11 12 -6z m-5782 -33 c-3 -3 -11 0 -18 7
-9 10 -8 11 6 5 10 -3 15 -9 12 -12z m5725 8 c0 -5 -2 -10 -4 -10 -3 0 -8 5
-11 10 -3 6 -1 10 4 10 6 0 11 -4 11 -10z m100 0 c0 -5 -5 -10 -11 -10 -5 0
-7 5 -4 10 3 6 8 10 11 10 2 0 4 -4 4 -10z m-43 -25 c0 -8 -4 -12 -9 -9 -5 3
-6 10 -3 15 9 13 12 11 12 -6z m138 6 c-9 -8 -36 -10 -30 -2 2 4 11 8 20 8 8
0 13 -3 10 -6z m60 -1 c3 -5 1 -10 -4 -10 -6 0 -11 5 -11 10 0 6 2 10 4 10 3
0 8 -4 11 -10z m-302 -35 c-3 -9 -8 -14 -10 -11 -3 3 -2 9 2 15 9 16 15 13 8
-4z m-5229 -23 c3 -5 -1 -9 -9 -9 -8 0 -12 4 -9 9 3 4 7 8 9 8 2 0 6 -4 9 -8z
m5493 -17 c0 -8 -4 -12 -9 -9 -5 3 -6 10 -3 15 9 13 12 11 12 -6z m-147 -1 c0
-8 -19 -13 -24 -6 -3 5 1 9 9 9 8 0 15 -2 15 -3z m65 -3 c-9 -8 -36 -10 -30
-2 2 4 11 8 20 8 8 0 13 -3 10 -6z m49 1 c3 -5 -1 -9 -9 -9 -8 0 -12 4 -9 9 3
4 7 8 9 8 2 0 6 -4 9 -8z m44 -78 c-12 -12 -17 -13 -23 -3 -5 8 -4 10 4 5 6
-4 14 0 17 9 4 9 9 13 12 10 3 -3 -1 -13 -10 -21z m57 16 c3 -6 -1 -7 -9 -4
-18 7 -21 14 -7 14 6 0 13 -4 16 -10z m-191 -22 c-3 -4 -11 -5 -19 -1 -21 7
-19 12 4 10 11 0 18 -5 15 -9z m56 6 c0 -8 -19 -13 -24 -6 -3 5 1 9 9 9 8 0
15 -2 15 -3z m190 2 c0 -3 -4 -8 -10 -11 -5 -3 -10 -1 -10 4 0 6 5 11 10 11 6
0 10 -2 10 -4z m35 -6 c3 -5 1 -10 -4 -10 -6 0 -11 5 -11 10 0 6 2 10 4 10 3
0 8 -4 11 -10z m-160 -29 c3 -5 2 -12 -3 -15 -5 -3 -9 1 -9 9 0 17 3 19 12 6z
m-140 -11 c3 -5 1 -10 -4 -10 -6 0 -11 5 -11 10 0 6 2 10 4 10 3 0 8 -4 11
-10z m260 0 c3 -5 1 -10 -4 -10 -6 0 -11 5 -11 10 0 6 2 10 4 10 3 0 8 -4 11
-10z m40 0 c3 -5 1 -10 -4 -10 -6 0 -11 5 -11 10 0 6 2 10 4 10 3 0 8 -4 11
-10z m-239 -56 c1 -9 0 -13 -4 -10 -3 4 -7 14 -8 22 -1 9 0 13 4 10 3 -4 7
-14 8 -22z m81 4 c2 -17 0 -19 -7 -8 -5 8 -6 18 -4 22 8 12 10 10 11 -14z
m123 12 c0 -5 -2 -10 -4 -10 -3 0 -8 5 -11 10 -3 6 -1 10 4 10 6 0 11 -4 11
-10z m40 0 c0 -5 -2 -10 -4 -10 -3 0 -8 5 -11 10 -3 6 -1 10 4 10 6 0 11 -4
11 -10z m40 0 c0 -5 -2 -10 -4 -10 -3 0 -8 5 -11 10 -3 6 -1 10 4 10 6 0 11
-4 11 -10z m-120 -34 c0 -3 -4 -8 -10 -11 -5 -3 -10 -1 -10 4 0 6 5 11 10 11
6 0 10 -2 10 -4z m40 -6 c0 -5 -5 -10 -11 -10 -5 0 -7 5 -4 10 3 6 8 10 11 10
2 0 4 -4 4 -10z m-147 -15 c-3 -9 -8 -14 -10 -11 -3 3 -2 9 2 15 9 16 15 13 8
-4z m257 1 c0 -2 -8 -10 -17 -17 -16 -13 -17 -12 -4 4 13 16 21 21 21 13z
m114 -24 c3 -5 -1 -9 -9 -9 -8 0 -12 4 -9 9 3 4 7 8 9 8 2 0 6 -4 9 -8z m-324
-16 c0 -2 -7 -7 -16 -10 -8 -3 -12 -2 -9 4 6 10 25 14 25 6z m55 -66 c3 -5 1
-10 -4 -10 -6 0 -11 5 -11 10 0 6 2 10 4 10 3 0 8 -4 11 -10z m5 -40 c0 -5 -5
-10 -11 -10 -5 0 -7 5 -4 10 3 6 8 10 11 10 2 0 4 -4 4 -10z m160 0 c0 -5 -2
-10 -4 -10 -3 0 -8 5 -11 10 -3 6 -1 10 4 10 6 0 11 -4 11 -10z m134 -39 c3
-5 -2 -15 -12 -22 -15 -12 -16 -12 -5 2 7 9 10 19 6 22 -3 4 -4 7 0 7 3 0 8
-4 11 -9z m-224 -17 c0 -8 -19 -13 -24 -6 -3 5 1 9 9 9 8 0 15 -2 15 -3z m40
2 c0 -2 -8 -10 -17 -17 -16 -13 -17 -12 -4 4 13 16 21 21 21 13z m61 -13 c13
-16 12 -17 -3 -4 -10 7 -18 15 -18 17 0 8 8 3 21 -13z m169 -7 c0 -2 -7 -7
-16 -10 -8 -3 -12 -2 -9 4 6 10 25 14 25 6z m-249 -39 c-10 -9 -11 -8 -5 6 3
10 9 15 12 12 3 -3 0 -11 -7 -18z m49 -27 c0 -5 -2 -10 -4 -10 -3 0 -8 5 -11
10 -3 6 -1 10 4 10 6 0 11 -4 11 -10z m134 -6 c3 -8 2 -12 -4 -9 -6 3 -10 10
-10 16 0 14 7 11 14 -7z m61 -43 c3 -5 2 -12 -3 -15 -5 -3 -9 1 -9 9 0 17 3
19 12 6z m95 -7 c0 -8 -19 -13 -24 -6 -3 5 1 9 9 9 8 0 15 -2 15 -3z m-13 -56
c2 -17 0 -19 -7 -8 -5 8 -6 18 -4 22 8 12 10 10 11 -14z m98 -37 c3 -5 2 -12
-3 -15 -5 -3 -9 1 -9 9 0 17 3 19 12 6z m2 -86 c0 -8 -4 -15 -9 -15 -10 0 -11
14 -1 23 9 10 10 9 10 -8z m33 -59 c0 -2 -8 -10 -17 -17 -16 -13 -17 -12 -4 4
13 16 21 21 21 13z m26 -11 c-1 -8 -5 -17 -8 -21 -5 -4 -4 16 1 34 3 9 9 -1 7
-13z m21 -50 c0 -8 -4 -15 -9 -15 -10 0 -11 14 -1 23 9 10 10 9 10 -8z m-86
-18 c-10 -9 -11 -8 -5 6 3 10 9 15 12 12 3 -3 0 -11 -7 -18z m26 -34 c0 -9 -4
-10 -14 -2 -7 6 -13 12 -13 14 0 1 6 2 13 2 8 0 14 -6 14 -14z m81 2 c3 -3 -4
-4 -16 -2 -12 2 -24 6 -28 10 -4 3 4 4 16 2 12 -2 25 -7 28 -10z m18 -30 c-1
-8 -5 -17 -8 -21 -5 -4 -4 16 1 34 3 9 9 -1 7 -13z m24 -45 c0 -5 -5 -10 -11
-10 -5 0 -7 5 -4 10 3 6 8 10 11 10 2 0 4 -4 4 -10z m1 -57 c13 -16 12 -17 -3
-4 -17 13 -22 21 -14 21 2 0 10 -8 17 -17z m93 -69 c3 -8 2 -12 -4 -9 -6 3
-10 10 -10 16 0 14 7 11 14 -7z m39 -44 c10 -12 9 -12 -4 -2 -9 6 -18 9 -21 6
-3 -3 -9 -1 -12 4 -9 15 22 8 37 -8z m-6697 -376 c1 -9 0 -13 -4 -10 -3 4 -7
14 -8 22 -1 9 0 13 4 10 3 -4 7 -14 8 -22z m54 -28 c0 -2 -8 -10 -17 -17 -16
-13 -17 -12 -4 4 13 16 21 21 21 13z m-36 -32 c3 -8 2 -12 -4 -9 -6 3 -10 10
-10 16 0 14 7 11 14 -7z m66 -52 c0 -5 -7 -9 -15 -9 -8 0 -12 4 -9 9 3 4 9 8
15 8 5 0 9 -4 9 -8z m33 -17 c-3 -9 -8 -14 -10 -11 -3 3 -2 9 2 15 9 16 15 13
8 -4z m24 -38 c0 -8 -6 -14 -14 -14 -9 0 -10 4 -2 14 6 7 12 13 14 13 1 0 2
-6 2 -13z m-43 -5 c3 -5 -1 -9 -9 -9 -8 0 -12 4 -9 9 3 4 7 8 9 8 2 0 6 -4 9
-8z m90 0 c3 -5 -1 -9 -9 -9 -8 0 -12 4 -9 9 3 4 7 8 9 8 2 0 6 -4 9 -8z m-84
-42 c0 -5 -2 -10 -4 -10 -3 0 -8 5 -11 10 -3 6 -1 10 4 10 6 0 11 -4 11 -10z
m60 -40 c0 -5 -5 -10 -11 -10 -5 0 -7 5 -4 10 3 6 8 10 11 10 2 0 4 -4 4 -10z
m40 4 c0 -8 -19 -13 -24 -6 -3 5 1 9 9 9 8 0 15 -2 15 -3z m-15 -44 c3 -6 -1
-7 -9 -4 -18 7 -21 14 -7 14 6 0 13 -4 16 -10z m85 4 c0 -8 -19 -13 -24 -6 -3
5 1 9 9 9 8 0 15 -2 15 -3z m-75 -62 c-3 -3 3 -15 12 -26 14 -15 14 -18 2 -8
-9 6 -20 8 -25 4 -5 -4 -6 -3 -2 2 4 5 3 14 -2 21 -7 8 -5 12 5 12 8 0 13 -3
10 -5z m89 -4 c-3 -4 -9 -8 -15 -8 -5 0 -9 4 -9 8 0 5 7 9 15 9 8 0 12 -4 9
-9z m33 -3 c0 -8 -4 -12 -9 -9 -5 3 -6 10 -3 15 9 13 12 11 12 -6z m-77 -15
c0 -5 -2 -10 -4 -10 -3 0 -8 5 -11 10 -3 6 -1 10 4 10 6 0 11 -4 11 -10z m115
1 c3 -5 2 -12 -3 -15 -5 -3 -9 1 -9 9 0 17 3 19 12 6z m-80 -10 c3 -5 2 -12
-3 -15 -5 -3 -9 1 -9 9 0 17 3 19 12 6z m166 -108 c13 -16 12 -17 -3 -4 -10 7
-18 15 -18 17 0 8 8 3 21 -13z m75 -49 c1 -9 0 -13 -4 -10 -3 4 -7 14 -8 22
-1 9 0 13 4 10 3 -4 7 -14 8 -22z m-170 4 c3 -4 -1 -5 -10 -4 -8 1 -18 5 -22
8 -3 4 1 5 10 4 8 -1 18 -5 22 -8z m54 -34 c0 -8 -19 -13 -24 -6 -3 5 1 9 9 9
8 0 15 -2 15 -3z m71 -51 c13 -16 12 -17 -3 -4 -10 7 -18 15 -18 17 0 8 8 3
21 -13z m144 -13 c3 -5 1 -10 -4 -10 -6 0 -11 5 -11 10 0 6 2 10 4 10 3 0 8
-4 11 -10z m-130 -19 c-9 -8 -36 -10 -30 -2 2 4 11 8 20 8 8 0 13 -3 10 -6z
m255 -101 c0 -5 -2 -10 -4 -10 -3 0 -8 5 -11 10 -3 6 -1 10 4 10 6 0 11 -4 11
-10z m-100 -16 c0 -8 -19 -13 -24 -6 -3 5 1 9 9 9 8 0 15 -2 15 -3z m135 -13
c3 -5 2 -12 -3 -15 -5 -3 -9 1 -9 9 0 17 3 19 12 6z m-62 -26 c-3 -9 -8 -14
-10 -11 -3 3 -2 9 2 15 9 16 15 13 8 -4z m-33 1 c0 -3 -4 -8 -10 -11 -5 -3
-10 -1 -10 4 0 6 5 11 10 11 6 0 10 -2 10 -4z m5284 -4 c3 -5 -1 -9 -9 -9 -8
0 -12 4 -9 9 3 4 7 8 9 8 2 0 6 -4 9 -8z m966 2 c0 -8 -19 -13 -24 -6 -3 5 1
9 9 9 8 0 15 -2 15 -3z m70 0 c0 -8 -19 -13 -24 -6 -3 5 1 9 9 9 8 0 15 -2 15
-3z m317 -9 c0 -8 -4 -12 -9 -9 -5 3 -6 10 -3 15 9 13 12 11 12 -6z m-6803
-45 c-6 -6 -10 -3 -10 10 0 13 4 16 10 10 7 -7 7 -13 0 -20z m39 15 c-3 -9 -8
-14 -10 -11 -3 3 -2 9 2 15 9 16 15 13 8 -4z m147 -19 c0 -3 -4 -8 -10 -11 -5
-3 -10 -1 -10 4 0 6 5 11 10 11 6 0 10 -2 10 -4z m40 -6 c0 -5 -2 -10 -4 -10
-3 0 -8 5 -11 10 -3 6 -1 10 4 10 6 0 11 -4 11 -10z m130 4 c0 -8 -19 -13 -24
-6 -3 5 1 9 9 9 8 0 15 -2 15 -3z m-250 -38 c0 -3 -4 -8 -10 -11 -5 -3 -10 -1
-10 4 0 6 5 11 10 11 6 0 10 -2 10 -4z m35 -6 c3 -5 1 -10 -4 -10 -6 0 -11 5
-11 10 0 6 2 10 4 10 3 0 8 -4 11 -10z m45 6 c0 -3 -4 -8 -10 -11 -5 -3 -10
-1 -10 4 0 6 5 11 10 11 6 0 10 -2 10 -4z m40 -6 c0 -5 -5 -10 -11 -10 -5 0
-7 5 -4 10 3 6 8 10 11 10 2 0 4 -4 4 -10z m156 -25 c-1 -8 -5 -17 -8 -21 -5
-4 -4 16 1 34 3 9 9 -1 7 -13z m-321 -15 c3 -5 1 -10 -4 -10 -6 0 -11 5 -11
10 0 6 2 10 4 10 3 0 8 -4 11 -10z m85 0 c0 -5 -2 -10 -4 -10 -3 0 -8 5 -11
10 -3 6 -1 10 4 10 6 0 11 -4 11 -10z m35 0 c3 -5 1 -10 -4 -10 -6 0 -11 5
-11 10 0 6 2 10 4 10 3 0 8 -4 11 -10z m69 -18 c3 -5 -1 -9 -9 -9 -8 0 -12 4
-9 9 3 4 7 8 9 8 2 0 6 -4 9 -8z m50 -20 c2 -4 -5 -9 -17 -9 -17 -2 -19 0 -7
7 18 12 18 12 24 2z m81 -1 c3 -5 2 -12 -3 -15 -5 -3 -9 1 -9 9 0 17 3 19 12
6z m-195 -35 c0 -3 -4 -8 -10 -11 -5 -3 -10 -1 -10 4 0 6 5 11 10 11 6 0 10
-2 10 -4z m35 -6 c3 -5 1 -10 -4 -10 -6 0 -11 5 -11 10 0 6 2 10 4 10 3 0 8
-4 11 -10z m120 1 c-9 -8 -36 -10 -30 -2 2 4 11 8 20 8 8 0 13 -3 10 -6z m119
1 c2 -4 -5 -9 -17 -9 -17 -2 -19 0 -7 7 18 12 18 12 24 2z m-169 -22 c-3 -5
-12 -10 -18 -10 -7 0 -6 4 3 10 19 12 23 12 15 0z m210 0 c3 -5 1 -10 -4 -10
-6 0 -11 5 -11 10 0 6 2 10 4 10 3 0 8 -4 11 -10z m-100 -19 c-9 -8 -36 -10
-30 -2 2 4 11 8 20 8 8 0 13 -3 10 -6z m5411 -23 c3 -4 -1 -5 -10 -4 -8 1 -18
5 -22 8 -3 4 1 5 10 4 8 -1 18 -5 22 -8z m-5586 -18 c0 -5 -5 -10 -11 -10 -5
0 -7 5 -4 10 3 6 8 10 11 10 2 0 4 -4 4 -10z m115 1 c-9 -8 -36 -10 -30 -2 2
4 11 8 20 8 8 0 13 -3 10 -6z m210 -21 c-3 -5 -12 -10 -18 -10 -7 0 -6 4 3 10
19 12 23 12 15 0z m-330 -20 c3 -5 1 -10 -4 -10 -6 0 -11 5 -11 10 0 6 2 10 4
10 3 0 8 -4 11 -10z m199 1 c3 -5 -2 -15 -12 -22 -15 -12 -16 -12 -5 2 7 9 10
19 6 22 -3 4 -4 7 0 7 3 0 8 -4 11 -9z m-77 -36 c0 -8 -4 -12 -9 -9 -5 3 -6
10 -3 15 9 13 12 11 12 -6z m77 -43 c3 -5 -1 -9 -9 -9 -8 0 -12 4 -9 9 3 4 7
8 9 8 2 0 6 -4 9 -8z m-129 -22 c3 -6 -1 -7 -9 -4 -18 7 -21 14 -7 14 6 0 13
-4 16 -10z m75 -4 c0 -2 -6 -9 -14 -15 -11 -9 -16 -9 -22 0 -4 7 -3 9 4 5 6
-3 13 -2 17 4 6 10 15 14 15 6z m-90 -12 c0 -8 -19 -13 -24 -6 -3 5 1 9 9 9 8
0 15 -2 15 -3z m154 -2 c3 -5 -1 -9 -9 -9 -8 0 -12 4 -9 9 3 4 7 8 9 8 2 0 6
-4 9 -8z m290 -28 c3 -8 2 -12 -4 -9 -6 3 -10 10 -10 16 0 14 7 11 14 -7z
m-459 -3 c3 -5 2 -12 -3 -15 -5 -3 -9 1 -9 9 0 17 3 19 12 6z m5386 -28 c13
-16 12 -17 -3 -4 -10 7 -18 15 -18 17 0 8 8 3 21 -13z m-807 -9 c3 -8 2 -12
-4 -9 -6 3 -10 10 -10 16 0 14 7 11 14 -7z m-4498 -30 c1 -9 0 -13 -4 -10 -3
4 -7 14 -8 22 -1 9 0 13 4 10 3 -4 7 -14 8 -22z m40 11 c-1 -8 -5 -17 -8 -21
-5 -4 -4 16 1 34 3 9 9 -1 7 -13z m144 -15 c0 -5 -2 -10 -4 -10 -3 0 -8 5 -11
10 -3 6 -1 10 4 10 6 0 11 -4 11 -10z m4275 0 c3 -5 1 -10 -4 -10 -6 0 -11 5
-11 10 0 6 2 10 4 10 3 0 8 -4 11 -10z m445 0 c0 -5 -2 -10 -4 -10 -3 0 -8 5
-11 10 -3 6 -1 10 4 10 6 0 11 -4 11 -10z m80 -4 c-7 -7 -13 -7 -20 0 -6 6 -3
10 10 10 13 0 16 -4 10 -10z m515 4 c3 -5 1 -10 -4 -10 -6 0 -11 5 -11 10 0 6
2 10 4 10 3 0 8 -4 11 -10z m-5405 -16 c0 -8 -19 -13 -24 -6 -3 5 1 9 9 9 8 0
15 -2 15 -3z m-15 -43 c-9 -8 -36 -10 -30 -2 2 4 11 8 20 8 8 0 13 -3 10 -6z
m160 -29 c-3 -3 -11 0 -18 7 -9 10 -8 11 6 5 10 -3 15 -9 12 -12z m-240 -12
c3 -5 1 -10 -4 -10 -6 0 -11 5 -11 10 0 6 2 10 4 10 3 0 8 -4 11 -10z m95 -15
c-7 -8 -17 -15 -23 -15 -6 0 -2 7 9 15 25 19 30 19 14 0z m110 -45 c0 -5 -2
-10 -4 -10 -3 0 -8 5 -11 10 -3 6 -1 10 4 10 6 0 11 -4 11 -10z m135 -9 c3 -5
2 -12 -3 -15 -5 -3 -9 1 -9 9 0 17 3 19 12 6z m-258 -16 c0 -8 -4 -12 -9 -9
-5 3 -6 10 -3 15 9 13 12 11 12 -6z m127 -13 c3 -5 -1 -9 -9 -9 -8 0 -12 4 -9
9 3 4 7 8 9 8 2 0 6 -4 9 -8z m-154 -18 c0 -8 -19 -13 -24 -6 -3 5 1 9 9 9 8
0 15 -2 15 -3z m367 -19 c0 -8 -4 -12 -9 -9 -5 3 -6 10 -3 15 9 13 12 11 12
-6z m4244 -2 c13 -16 12 -17 -3 -4 -17 13 -22 21 -14 21 2 0 10 -8 17 -17z
m240 0 c13 -16 12 -17 -3 -4 -10 7 -18 15 -18 17 0 8 8 3 21 -13z m159 13 c0
-2 -8 -10 -17 -17 -16 -13 -17 -12 -4 4 13 16 21 21 21 13z m-4767 -31 c-3 -9
-8 -14 -10 -11 -3 3 -2 9 2 15 9 16 15 13 8 -4z m-178 -34 c3 -5 2 -12 -3 -15
-5 -3 -9 1 -9 9 0 17 3 19 12 6z m379 -37 c3 -8 2 -12 -4 -9 -6 3 -10 10 -10
16 0 14 7 11 14 -7z m-354 -14 c0 -5 -2 -10 -4 -10 -3 0 -8 5 -11 10 -3 6 -1
10 4 10 6 0 11 -4 11 -10z m4918 -25 c-3 -3 -9 2 -12 12 -6 14 -5 15 5 6 7 -7
10 -15 7 -18z m-4898 -51 c0 -8 -19 -13 -24 -6 -3 5 1 9 9 9 8 0 15 -2 15 -3z
m124 -62 c3 -5 -1 -9 -9 -9 -8 0 -12 4 -9 9 3 4 7 8 9 8 2 0 6 -4 9 -8z m91
-1 c3 -5 2 -12 -3 -15 -5 -3 -9 1 -9 9 0 17 3 19 12 6z m3759 1 c3 -5 -1 -9
-9 -9 -8 0 -12 4 -9 9 3 4 7 8 9 8 2 0 6 -4 9 -8z m126 2 c0 -8 -19 -13 -24
-6 -3 5 1 9 9 9 8 0 15 -2 15 -3z m114 -2 c3 -5 -1 -9 -9 -9 -8 0 -12 4 -9 9
3 4 7 8 9 8 2 0 6 -4 9 -8z m319 -37 c-3 -9 -8 -14 -10 -11 -3 3 -2 9 2 15 9
16 15 13 8 -4z m-4309 -123 c3 -5 -1 -9 -9 -9 -8 0 -12 4 -9 9 3 4 7 8 9 8 2
0 6 -4 9 -8z m593 -7 c0 -8 -4 -12 -9 -9 -4 3 -8 9 -8 15 0 5 4 9 8 9 5 0 9
-7 9 -15z m3178 -3 c-3 -3 -11 0 -18 7 -9 10 -8 11 6 5 10 -3 15 -9 12 -12z
m245 14 c0 -2 -7 -7 -16 -10 -8 -3 -12 -2 -9 4 6 10 25 14 25 6z m-585 -15 c3
-5 2 -12 -3 -15 -5 -3 -9 1 -9 9 0 17 3 19 12 6z m238 -6 c-3 -9 -8 -14 -10
-11 -3 3 -2 9 2 15 9 16 15 13 8 -4z m-313 -5 c0 -5 -2 -10 -4 -10 -3 0 -8 5
-11 10 -3 6 -1 10 4 10 6 0 11 -4 11 -10z m560 6 c0 -3 -4 -8 -10 -11 -5 -3
-10 -1 -10 4 0 6 5 11 10 11 6 0 10 -2 10 -4z m-100 -26 c0 -5 -2 -10 -4 -10
-3 0 -8 5 -11 10 -3 6 -1 10 4 10 6 0 11 -4 11 -10z m-340 -14 c0 -3 -4 -8
-10 -11 -5 -3 -10 -1 -10 4 0 6 5 11 10 11 6 0 10 -2 10 -4z m-140 -26 c0 -5
-5 -10 -11 -10 -5 0 -7 5 -4 10 3 6 8 10 11 10 2 0 4 -4 4 -10z m80 0 c0 -5
-5 -10 -11 -10 -5 0 -7 5 -4 10 3 6 8 10 11 10 2 0 4 -4 4 -10z m120 6 c0 -3
-4 -8 -10 -11 -5 -3 -10 -1 -10 4 0 6 5 11 10 11 6 0 10 -2 10 -4z m280 -6 c0
-5 -5 -10 -11 -10 -5 0 -7 5 -4 10 3 6 8 10 11 10 2 0 4 -4 4 -10z m80 0 c0
-5 -5 -10 -11 -10 -5 0 -7 5 -4 10 3 6 8 10 11 10 2 0 4 -4 4 -10z m-404 -22
c4 -7 4 -10 -1 -6 -4 4 -15 2 -24 -5 -14 -11 -14 -10 -2 6 16 20 18 21 27 5z
m80 -24 c0 -13 -2 -22 -5 -19 -3 3 -6 17 -7 31 0 13 2 22 5 19 3 -3 6 -17 7
-31z m158 24 c-3 -4 -11 -5 -19 -1 -21 7 -19 12 4 10 11 0 18 -5 15 -9z m-450
-16 c3 -5 -1 -9 -9 -9 -8 0 -12 4 -9 9 3 4 7 8 9 8 2 0 6 -4 9 -8z m240 0 c3
-5 -1 -9 -9 -9 -8 0 -12 4 -9 9 3 4 7 8 9 8 2 0 6 -4 9 -8z m-68 -38 c1 -9 0
-13 -4 -10 -3 4 -7 14 -8 22 -1 9 0 13 4 10 3 -4 7 -14 8 -22z m220 14 c3 -4
-1 -5 -10 -4 -8 1 -18 5 -22 8 -3 4 1 5 10 4 8 -1 18 -5 22 -8z m108 4 c3 -5
-1 -9 -9 -9 -8 0 -12 4 -9 9 3 4 7 8 9 8 2 0 6 -4 9 -8z m72 -7 c-1 -8 -5 -17
-8 -21 -5 -4 -4 16 1 34 3 9 9 -1 7 -13z m-516 -15 c0 -5 -2 -10 -4 -10 -3 0
-8 5 -11 10 -3 6 -1 10 4 10 6 0 11 -4 11 -10z m156 -5 c-1 -8 -5 -17 -8 -21
-5 -4 -4 16 1 34 3 9 9 -1 7 -13z m-81 -7 c5 4 5 1 1 -6 -6 -10 -11 -10 -22
-1 -8 6 -14 14 -14 16 0 3 6 0 13 -6 8 -6 18 -7 22 -3z m401 -44 c1 -9 0 -13
-4 -10 -3 4 -7 14 -8 22 -1 9 0 13 4 10 3 -4 7 -14 8 -22z m-601 -3 c-9 -8
-36 -10 -30 -2 2 4 11 8 20 8 8 0 13 -3 10 -6z m165 5 c0 -3 -4 -8 -10 -11 -5
-3 -10 -1 -10 4 0 6 5 11 10 11 6 0 10 -2 10 -4z m56 -8 c3 -4 -1 -5 -10 -4
-8 1 -18 5 -22 8 -3 4 1 5 10 4 8 -1 18 -5 22 -8z m60 -14 c1 -9 0 -13 -4 -10
-3 4 -7 14 -8 22 -1 9 0 13 4 10 3 -4 7 -14 8 -22z m204 22 c0 -3 -4 -8 -10
-11 -5 -3 -10 -1 -10 4 0 6 5 11 10 11 6 0 10 -2 10 -4z m-375 -25 c-9 -8 -36
-10 -30 -2 2 4 11 8 20 8 8 0 13 -3 10 -6z m240 -1 c3 -6 -1 -7 -9 -4 -18 7
-21 14 -7 14 6 0 13 -4 16 -10z m-285 -25 c0 -2 -9 -3 -19 -2 -11 0 -18 5 -15
9 4 6 34 0 34 -7z m334 7 c2 -4 -5 -9 -17 -9 -17 -2 -19 0 -7 7 18 12 18 12
24 2z m121 -1 c-9 -8 -36 -10 -30 -2 2 4 11 8 20 8 8 0 13 -3 10 -6z m-479
-43 c3 -4 -1 -5 -10 -4 -8 1 -18 5 -22 8 -3 4 1 5 10 4 8 -1 18 -5 22 -8z
m364 2 c0 -5 -5 -10 -11 -10 -5 0 -7 5 -4 10 3 6 8 10 11 10 2 0 4 -4 4 -10z
m-463 -15 c0 -8 -4 -15 -9 -15 -10 0 -11 14 -1 23 9 10 10 9 10 -8z m223 -19
c0 -3 -4 -8 -10 -11 -5 -3 -10 -1 -10 4 0 6 5 11 10 11 6 0 10 -2 10 -4z m120
-6 c0 -5 -5 -10 -11 -10 -5 0 -7 5 -4 10 3 6 8 10 11 10 2 0 4 -4 4 -10z
m-445 -40 c3 -5 1 -10 -4 -10 -6 0 -11 5 -11 10 0 6 2 10 4 10 3 0 8 -4 11
-10z m200 0 c3 -5 1 -10 -4 -10 -6 0 -11 5 -11 10 0 6 2 10 4 10 3 0 8 -4 11
-10z m45 0 c0 -5 -5 -10 -11 -10 -5 0 -7 5 -4 10 3 6 8 10 11 10 2 0 4 -4 4
-10z m160 6 c0 -3 -4 -8 -10 -11 -5 -3 -10 -1 -10 4 0 6 5 11 10 11 6 0 10 -2
10 -4z m-3180 -22 c0 -8 -19 -13 -24 -6 -3 5 1 9 9 9 8 0 15 -2 15 -3z m2780
-24 c0 -5 -5 -10 -11 -10 -5 0 -7 5 -4 10 3 6 8 10 11 10 2 0 4 -4 4 -10z m40
0 c0 -5 -5 -10 -11 -10 -5 0 -7 5 -4 10 3 6 8 10 11 10 2 0 4 -4 4 -10z m40 6
c0 -3 -4 -8 -10 -11 -5 -3 -10 -1 -10 4 0 6 5 11 10 11 6 0 10 -2 10 -4z m240
-6 c0 -5 -2 -10 -4 -10 -3 0 -8 5 -11 10 -3 6 -1 10 4 10 6 0 11 -4 11 -10z
m35 0 c3 -5 1 -10 -4 -10 -6 0 -11 5 -11 10 0 6 2 10 4 10 3 0 8 -4 11 -10z
m40 0 c3 -5 1 -10 -4 -10 -6 0 -11 5 -11 10 0 6 2 10 4 10 3 0 8 -4 11 -10z
m-195 -40 c0 -5 -5 -10 -11 -10 -5 0 -7 5 -4 10 3 6 8 10 11 10 2 0 4 -4 4
-10z m-205 -40 c3 -5 1 -10 -4 -10 -6 0 -11 5 -11 10 0 6 2 10 4 10 3 0 8 -4
11 -10z m216 -27 c13 -16 12 -17 -3 -4 -10 7 -18 15 -18 17 0 8 8 3 21 -13z
m-291 -13 c0 -5 -2 -10 -4 -10 -3 0 -8 5 -11 10 -3 6 -1 10 4 10 6 0 11 -4 11
-10z m-1940 -16 c0 -8 -19 -13 -24 -6 -3 5 1 9 9 9 8 0 15 -2 15 -3z m1780 -4
c0 -5 -2 -10 -4 -10 -3 0 -8 5 -11 10 -3 6 -1 10 4 10 6 0 11 -4 11 -10z m115
-39 c3 -5 2 -12 -3 -15 -5 -3 -9 1 -9 9 0 17 3 19 12 6z m195 5 c0 -2 -8 -10
-17 -17 -16 -13 -17 -12 -4 4 13 16 21 21 21 13z m35 -6 c-3 -5 -12 -10 -18
-10 -7 0 -6 4 3 10 19 12 23 12 15 0z m-365 -24 c0 -2 -8 -10 -17 -17 -16 -13
-17 -12 -4 4 13 16 21 21 21 13z m34 -26 c-6 -6 -10 -3 -10 10 0 13 4 16 10
10 7 -7 7 -13 0 -20z m142 8 c4 -7 4 -10 -1 -6 -4 4 -15 2 -24 -5 -14 -11 -14
-10 -2 6 16 20 18 21 27 5z m118 -4 c3 -8 2 -12 -4 -9 -6 3 -10 10 -10 16 0
14 7 11 14 -7z m-379 -22 c-3 -3 -11 0 -18 7 -9 10 -8 11 6 5 10 -3 15 -9 12
-12z m-38 -21 c0 -11 -5 -18 -9 -15 -4 3 -5 11 -1 19 7 21 12 19 10 -4z m218
10 c3 -5 2 -12 -3 -15 -5 -3 -9 1 -9 9 0 17 3 19 12 6z m-151 -39 c3 -5 -1 -9
-9 -9 -8 0 -12 4 -9 9 3 4 7 8 9 8 2 0 6 -4 9 -8z m-46 -47 c-3 -3 -9 2 -12
12 -6 14 -5 15 5 6 7 -7 10 -15 7 -18z m198 13 c5 4 5 3 1 -2 -12 -15 -34 -15
-34 0 0 9 4 11 12 4 7 -5 16 -6 21 -2z m-151 -7 c-9 -8 -36 -10 -30 -2 2 4 11
8 20 8 8 0 13 -3 10 -6z m32 -6 c0 -8 -4 -12 -9 -9 -5 3 -6 10 -3 15 9 13 12
11 12 -6z m-3 -33 c3 -5 -1 -9 -9 -9 -8 0 -12 4 -9 9 3 4 7 8 9 8 2 0 6 -4 9
-8z m-59 -43 c1 -11 -1 -22 -5 -24 -3 -2 -6 9 -6 25 0 33 9 32 11 -1z m36 14
c13 -16 12 -17 -3 -4 -10 7 -18 15 -18 17 0 8 8 3 21 -13z m-96 -12 c-9 -8
-36 -10 -30 -2 2 4 11 8 20 8 8 0 13 -3 10 -6z m-125 -17 c0 -8 -19 -13 -24
-6 -3 5 1 9 9 9 8 0 15 -2 15 -3z m25 -13 c3 -5 2 -12 -3 -15 -5 -3 -9 1 -9 9
0 17 3 19 12 6z m85 -33 c0 -4 -4 -8 -9 -8 -6 0 -12 4 -15 8 -3 5 1 9 9 9 8 0
15 -4 15 -9z m-45 -17 c3 -5 2 -12 -3 -15 -5 -3 -9 1 -9 9 0 17 3 19 12 6z
m-90 -41 c10 -11 16 -20 13 -20 -3 0 -13 9 -23 20 -10 11 -16 20 -13 20 3 0
13 -9 23 -20z m-53 -35 c3 3 11 -3 19 -12 12 -16 12 -17 -1 -7 -8 6 -23 10
-33 8 -11 -1 -16 0 -13 3 3 4 0 13 -6 22 -10 12 -7 12 8 -2 11 -9 23 -15 26
-12z m-87 -5 c-3 -5 -12 -10 -18 -10 -7 0 -6 4 3 10 19 12 23 12 15 0z m-5
-74 c0 -3 -4 -8 -10 -11 -5 -3 -10 -1 -10 4 0 6 5 11 10 11 6 0 10 -2 10 -4z"/>
<path d="M8990 11076 c-5 -7 -6 -17 -2 -21 4 -5 2 -5 -5 -2 -6 4 -21 -5 -32
-19 -12 -15 -21 -23 -21 -18 0 5 -8 -3 -17 -16 -10 -14 -16 -29 -15 -35 2 -5
0 -7 -4 -2 -10 10 -55 -33 -47 -46 3 -6 1 -7 -4 -4 -13 8 -46 -27 -36 -37 5
-4 3 -7 -2 -6 -18 4 -38 0 -32 -6 3 -3 -7 -17 -24 -31 -16 -14 -27 -29 -24
-34 4 -5 -2 -6 -12 -2 -10 3 -15 2 -11 -2 5 -5 -1 -15 -12 -22 -11 -8 -17 -19
-14 -25 4 -6 3 -8 -3 -5 -12 8 -96 -77 -86 -87 5 -4 4 -6 -2 -4 -5 1 -21 -5
-35 -15 -13 -9 -21 -17 -17 -17 4 0 -20 -25 -53 -55 -33 -30 -58 -55 -55 -55
2 0 -27 -29 -65 -65 -38 -36 -67 -65 -65 -65 3 0 -16 -19 -40 -41 -25 -23 -42
-46 -38 -52 3 -5 1 -7 -5 -3 -6 3 -17 -3 -25 -14 -7 -11 -17 -17 -22 -12 -4 4
-5 -1 -2 -11 4 -10 3 -16 -2 -12 -5 3 -20 -8 -34 -24 -14 -17 -28 -27 -31 -24
-6 6 -10 -13 -7 -30 1 -5 -3 -6 -7 -3 -12 7 -44 -28 -35 -39 5 -4 3 -5 -3 -2
-6 4 -32 -15 -57 -42 -25 -27 -48 -46 -51 -43 -6 5 -10 -14 -7 -31 1 -5 -3 -6
-7 -3 -12 7 -44 -28 -35 -39 5 -4 3 -5 -3 -2 -7 4 -26 -9 -43 -28 -17 -20 -31
-33 -31 -30 0 2 -25 -22 -55 -55 -30 -33 -55 -57 -55 -53 0 4 -11 -8 -25 -27
-14 -19 -25 -30 -25 -25 0 5 -8 -2 -17 -15 -10 -14 -17 -29 -15 -33 1 -5 -1
-6 -6 -3 -12 7 -54 -38 -45 -49 5 -4 3 -5 -3 -2 -14 8 -47 -26 -37 -37 5 -4 3
-7 -2 -6 -18 4 -38 0 -32 -6 3 -3 -7 -17 -24 -31 -16 -14 -27 -29 -24 -34 4
-5 -2 -6 -12 -2 -10 3 -15 2 -11 -2 5 -5 -1 -15 -12 -22 -11 -8 -17 -19 -14
-25 4 -6 3 -8 -3 -5 -12 8 -96 -77 -86 -87 5 -4 4 -6 -2 -4 -5 1 -21 -5 -35
-15 -13 -9 -21 -17 -17 -17 4 0 -20 -25 -53 -55 -33 -30 -58 -55 -55 -55 2 0
-16 -19 -40 -41 -25 -23 -42 -45 -39 -50 3 -5 2 -8 -3 -7 -9 3 -54 -26 -50
-33 1 -2 -15 -20 -35 -40 -21 -21 -38 -34 -38 -31 0 4 -7 -4 -16 -16 -9 -13
-14 -25 -13 -27 70 -79 2087 -2084 2094 -2081 5 2 9 9 8 15 -2 6 1 10 6 8 5
-1 10 3 11 8 0 6 10 13 21 17 13 5 18 13 13 20 -4 7 -3 10 1 5 11 -9 56 33 49
45 -3 5 0 7 8 6 7 -2 12 3 10 10 -1 8 1 11 6 8 11 -6 54 38 47 47 -3 4 -2 5 2
2 10 -8 33 16 26 28 -3 5 -2 7 4 4 13 -8 56 37 46 48 -5 4 -3 5 3 2 14 -8 47
26 37 38 -5 4 -3 5 3 2 14 -8 57 36 47 47 -5 4 -1 6 7 4 8 -2 14 3 12 10 -1 8
1 11 6 8 11 -6 54 38 47 47 -3 4 -2 5 2 2 10 -8 43 26 36 38 -3 5 -2 7 4 4 11
-7 56 36 48 46 -3 4 -2 5 2 2 10 -8 33 16 26 28 -3 5 -2 7 4 4 13 -8 56 37 46
48 -5 4 -3 5 3 2 14 -8 37 17 26 28 -4 5 -2 5 4 2 14 -8 57 36 47 47 -5 4 -1
6 7 4 8 -2 14 3 12 10 -1 8 2 11 7 8 11 -7 35 20 27 32 -3 6 2 9 12 8 9 0 16
5 14 12 -1 8 1 11 6 8 5 -3 20 6 33 20 20 21 21 27 9 35 -11 7 -9 8 10 7 16
-2 24 2 22 10 -1 8 2 11 7 8 12 -8 33 18 23 29 -4 5 -2 5 4 2 14 -8 57 36 47
48 -5 4 -3 5 3 2 14 -8 37 17 26 28 -4 5 -2 5 4 2 14 -8 57 36 47 47 -5 4 -1
6 7 4 8 -2 14 3 12 10 -1 8 2 11 7 8 11 -7 35 20 27 32 -3 6 2 9 12 8 9 0 16
5 14 12 -1 8 1 11 6 8 5 -3 20 6 33 20 20 21 21 27 9 35 -11 7 -9 8 10 7 16
-2 24 2 22 10 -1 6 4 11 10 10 7 -2 12 3 10 10 -1 6 4 11 10 10 7 -2 12 5 12
14 -1 10 2 15 8 12 12 -8 39 16 32 27 -3 5 0 8 8 7 7 -2 12 3 10 10 -1 8 1 11
6 8 12 -7 54 38 45 49 -5 4 -3 5 3 2 14 -8 47 26 37 38 -5 4 -3 5 3 2 14 -8
57 36 47 47 -5 4 -1 6 7 4 8 -2 14 3 12 10 -1 8 1 11 6 8 12 -7 54 38 45 49
-5 4 -3 5 3 2 14 -8 37 17 26 28 -4 5 -2 5 4 2 14 -8 57 36 47 48 -5 4 -3 5 3
2 14 -8 47 26 37 38 -5 4 -3 5 3 2 14 -8 57 36 47 47 -5 4 -1 6 7 4 8 -2 14 3
12 10 -1 8 1 11 6 8 12 -7 54 38 45 49 -5 4 -3 5 3 2 14 -8 47 26 37 38 -5 4
-3 5 3 2 14 -8 57 36 47 48 -5 4 -3 5 3 2 6 -4 21 5 34 18 20 21 21 27 9 42
-13 16 -12 17 3 5 19 -15 42 -7 32 10 -4 6 -2 8 3 5 13 -8 36 17 25 28 -4 5
-2 5 4 2 14 -8 57 36 47 48 -5 4 -3 5 3 2 14 -8 37 17 26 28 -4 5 -2 5 4 2 14
-8 57 36 47 48 -5 4 -3 5 3 2 14 -8 37 17 26 27 -4 4 -1 6 7 4 7 -1 15 2 18 8
4 13 -583 605 -591 596 -4 -3 -6 0 -6 6 0 14 -648 662 -662 662 -6 0 -9 2 -6
5 7 8 -275 292 -284 288 -5 -3 -8 0 -8 6 0 6 -119 129 -265 275 -198 198 -267
261 -275 252z m-23 -61 c0 -8 -4 -12 -9 -9 -5 3 -6 10 -3 15 9 13 12 11 12 -6z
m-77 -89 c0 -2 -7 -7 -16 -10 -8 -3 -12 -2 -9 4 6 10 25 14 25 6z m45 -6 c3
-6 -1 -7 -9 -4 -18 7 -21 14 -7 14 6 0 13 -4 16 -10z m-89 -46 c-1 -8 -6 -17
-12 -21 -5 -4 -6 -4 -2 1 4 5 3 14 -2 21 -7 8 -5 12 4 12 8 0 13 -6 12 -13z
m38 -12 c3 -5 -1 -9 -9 -9 -8 0 -12 4 -9 9 3 4 7 8 9 8 2 0 6 -4 9 -8z m0 -68
c3 -8 2 -12 -4 -9 -6 3 -10 10 -10 16 0 14 7 11 14 -7z m101 -6 c5 4 5 1 1 -6
-6 -10 -11 -10 -22 -1 -8 6 -14 14 -14 16 0 3 6 0 13 -6 8 -6 18 -7 22 -3z
m-101 -34 c3 -8 2 -12 -4 -9 -6 3 -10 10 -10 16 0 14 7 11 14 -7z m62 -30 c1
-9 0 -13 -4 -10 -3 4 -7 14 -8 22 -1 9 0 13 4 10 3 -4 7 -14 8 -22z m-101 -33
c3 -5 2 -12 -3 -15 -5 -3 -9 1 -9 9 0 17 3 19 12 6z m-200 -11 c3 -5 1 -10 -4
-10 -6 0 -11 5 -11 10 0 6 2 10 4 10 3 0 8 -4 11 -10z m261 -16 c1 -9 0 -13
-4 -10 -3 4 -7 14 -8 22 -1 9 0 13 4 10 3 -4 7 -14 8 -22z m-176 2 c0 -2 -7
-7 -16 -10 -8 -3 -12 -2 -9 4 6 10 25 14 25 6z m264 -24 c3 -5 -1 -9 -9 -9 -8
0 -12 4 -9 9 3 4 7 8 9 8 2 0 6 -4 9 -8z m-427 -19 c-4 -3 -1 -13 6 -22 11
-14 10 -14 -5 -2 -16 12 -16 31 -1 31 4 0 3 -3 0 -7z m218 -3 c3 -5 1 -10 -4
-10 -6 0 -11 5 -11 10 0 6 2 10 4 10 3 0 8 -4 11 -10z m125 -20 c0 -5 -2 -10
-4 -10 -3 0 -8 5 -11 10 -3 6 -1 10 4 10 6 0 11 -4 11 -10z m-86 -19 c-7 -8
-54 -9 -49 -1 2 3 15 6 29 6 14 0 23 -2 20 -5z m-303 -28 c13 -16 12 -17 -3
-4 -17 13 -22 21 -14 21 2 0 10 -8 17 -17z m-31 -27 c0 -2 -7 -7 -16 -10 -8
-3 -12 -2 -9 4 6 10 25 14 25 6z m200 0 c0 -2 -7 -7 -16 -10 -8 -3 -12 -2 -9
4 6 10 25 14 25 6z m76 -28 c3 -4 -1 -5 -10 -4 -8 1 -18 5 -22 8 -3 4 1 5 10
4 8 -1 18 -5 22 -8z m-359 -43 c0 -8 -4 -12 -9 -9 -5 3 -6 10 -3 15 9 13 12
11 12 -6z m263 9 c0 -8 -19 -13 -24 -6 -3 5 1 9 9 9 8 0 15 -2 15 -3z m40 -4
c0 -5 -2 -10 -4 -10 -3 0 -8 5 -11 10 -3 6 -1 10 4 10 6 0 11 -4 11 -10z
m-250 -54 c0 -2 -8 -10 -17 -17 -16 -13 -17 -12 -4 4 13 16 21 21 21 13z m186
-62 c1 -9 0 -13 -4 -10 -3 4 -7 14 -8 22 -1 9 0 13 4 10 3 -4 7 -14 8 -22z
m-52 -2 c3 -5 -1 -9 -9 -9 -8 0 -12 4 -9 9 3 4 7 8 9 8 2 0 6 -4 9 -8z m-234
-18 c0 -8 -19 -13 -24 -6 -3 5 1 9 9 9 8 0 15 -2 15 -3z m147 -19 c0 -8 -4
-12 -9 -9 -5 3 -6 10 -3 15 9 13 12 11 12 -6z m-37 -5 c0 -5 -5 -10 -11 -10
-5 0 -7 5 -4 10 3 6 8 10 11 10 2 0 4 -4 4 -10z m-167 -55 c-3 -9 -8 -14 -10
-11 -3 3 -2 9 2 15 9 16 15 13 8 -4z m104 -10 c0 -8 -4 -12 -9 -9 -5 3 -6 10
-3 15 9 13 12 11 12 -6z m128 5 c-3 -5 -12 -10 -18 -10 -7 0 -6 4 3 10 19 12
23 12 15 0z m-149 -86 c0 -13 -2 -22 -5 -19 -3 3 -6 17 -7 31 0 13 2 22 5 19
3 -3 6 -17 7 -31z m88 28 c3 -5 -1 -9 -9 -9 -8 0 -12 4 -9 9 3 4 7 8 9 8 2 0
6 -4 9 -8z m391 -11 c3 -5 2 -12 -3 -15 -5 -3 -9 1 -9 9 0 17 3 19 12 6z
m-759 -43 c5 4 5 3 1 -2 -12 -15 -34 -15 -34 0 0 9 4 11 12 4 7 -5 16 -6 21
-2z m184 -4 c0 -8 -19 -13 -24 -6 -3 5 1 9 9 9 8 0 15 -2 15 -3z m144 -2 c3
-5 -1 -9 -9 -9 -8 0 -12 4 -9 9 3 4 7 8 9 8 2 0 6 -4 9 -8z m-391 -37 c-3 -9
-8 -14 -10 -11 -3 3 -2 9 2 15 9 16 15 13 8 -4z m64 0 c0 -8 -4 -12 -9 -9 -5
3 -6 10 -3 15 9 13 12 11 12 -6z m68 -5 c3 -6 -1 -7 -9 -4 -18 7 -21 14 -7 14
6 0 13 -4 16 -10z m40 0 c3 -6 -1 -7 -9 -4 -18 7 -21 14 -7 14 6 0 13 -4 16
-10z m91 -22 c3 -4 -1 -5 -10 -4 -8 1 -18 5 -22 8 -3 4 1 5 10 4 8 -1 18 -5
22 -8z m-262 -24 c3 -8 2 -12 -4 -9 -6 3 -10 10 -10 16 0 14 7 11 14 -7z m202
-16 c3 -4 -1 -5 -10 -4 -8 1 -18 5 -22 8 -3 4 1 5 10 4 8 -1 18 -5 22 -8z
m-146 -12 c0 -2 -8 -10 -17 -17 -16 -13 -17 -12 -4 4 13 16 21 21 21 13z m167
-15 c0 -11 -5 -18 -9 -15 -4 3 -5 11 -1 19 7 21 12 19 10 -4z m63 15 c0 -3 -4
-8 -10 -11 -5 -3 -10 -1 -10 4 0 6 5 11 10 11 6 0 10 -2 10 -4z m60 -6 c0 -5
-2 -10 -4 -10 -3 0 -8 5 -11 10 -3 6 -1 10 4 10 6 0 11 -4 11 -10z m-444 -32
c5 4 5 3 1 -2 -12 -15 -34 -15 -34 0 0 9 4 11 12 4 7 -5 16 -6 21 -2z m144
-10 c0 -4 -4 -8 -9 -8 -6 0 -12 4 -15 8 -3 5 1 9 9 9 8 0 15 -4 15 -9z m96 -3
c-1 -8 -5 -17 -8 -21 -5 -4 -4 16 1 34 3 9 9 -1 7 -13z m-303 -30 c-3 -9 -8
-14 -10 -11 -3 3 -2 9 2 15 9 16 15 13 8 -4z m222 -24 c-9 -8 -36 -10 -30 -2
2 4 11 8 20 8 8 0 13 -3 10 -6z m56 -8 c13 -17 13 -17 -6 -3 -11 8 -22 16 -24
17 -2 2 0 3 6 3 6 0 17 -8 24 -17z m-118 -8 c-3 -9 -8 -14 -10 -11 -3 3 -2 9
2 15 9 16 15 13 8 -4z m-159 -11 c3 -8 2 -12 -4 -9 -6 3 -10 10 -10 16 0 14 7
11 14 -7z m96 12 c0 -2 -8 -10 -17 -17 -16 -13 -17 -12 -4 4 13 16 21 21 21
13z m150 -42 c0 -8 -19 -13 -24 -6 -3 5 1 9 9 9 8 0 15 -2 15 -3z m-180 -18
c0 -3 -4 -8 -10 -11 -5 -3 -10 -1 -10 4 0 6 5 11 10 11 6 0 10 -2 10 -4z m113
-21 c-7 -21 -12 -19 -10 4 0 11 5 18 9 15 4 -3 5 -11 1 -19z m-292 -2 c13 -16
12 -17 -3 -4 -10 7 -18 15 -18 17 0 8 8 3 21 -13z m379 3 c0 -2 -7 -7 -16 -10
-8 -3 -12 -2 -9 4 6 10 25 14 25 6z m110 -2 c0 -8 -19 -13 -24 -6 -3 5 1 9 9
9 8 0 15 -2 15 -3z m-310 -24 c0 -5 -2 -10 -4 -10 -3 0 -8 5 -11 10 -3 6 -1
10 4 10 6 0 11 -4 11 -10z m-229 -27 c12 -16 12 -17 -2 -6 -9 7 -20 9 -24 5
-5 -4 -5 -1 -1 6 9 16 11 15 27 -5z m309 7 c0 -5 -5 -10 -11 -10 -5 0 -7 5 -4
10 3 6 8 10 11 10 2 0 4 -4 4 -10z m-80 -20 c0 -5 -5 -10 -11 -10 -5 0 -7 5
-4 10 3 6 8 10 11 10 2 0 4 -4 4 -10z m185 -20 c3 -6 -1 -7 -9 -4 -18 7 -21
14 -7 14 6 0 13 -4 16 -10z m-435 -34 c0 -2 -8 -10 -17 -17 -16 -13 -17 -12
-4 4 13 16 21 21 21 13z m130 -20 c0 -3 -4 -8 -10 -11 -5 -3 -10 -1 -10 4 0 6
5 11 10 11 6 0 10 -2 10 -4z m34 -4 c3 -5 -1 -9 -9 -9 -8 0 -12 4 -9 9 3 4 7
8 9 8 2 0 6 -4 9 -8z m-254 -16 c0 -2 -7 -7 -16 -10 -8 -3 -12 -2 -9 4 6 10
25 14 25 6z m45 -6 c3 -6 -1 -7 -9 -4 -18 7 -21 14 -7 14 6 0 13 -4 16 -10z
m135 -20 c0 -5 -5 -10 -11 -10 -5 0 -7 5 -4 10 3 6 8 10 11 10 2 0 4 -4 4 -10z
m-224 -26 c-1 -8 -6 -17 -12 -21 -5 -4 -6 -4 -2 1 4 5 3 14 -2 21 -7 8 -5 12
4 12 8 0 13 -6 12 -13z m38 -12 c3 -5 -1 -9 -9 -9 -8 0 -12 4 -9 9 3 4 7 8 9
8 2 0 6 -4 9 -8z m142 -38 c1 -9 0 -13 -4 -10 -3 4 -7 14 -8 22 -1 9 0 13 4
10 3 -4 7 -14 8 -22z m-36 2 c0 -3 -4 -8 -10 -11 -5 -3 -10 -1 -10 4 0 6 5 11
10 11 6 0 10 -2 10 -4z m-106 -32 c3 -8 2 -12 -4 -9 -6 3 -10 10 -10 16 0 14
7 11 14 -7z m181 -13 c3 -5 2 -12 -3 -15 -5 -3 -9 1 -9 9 0 17 3 19 12 6z
m-181 -27 c3 -8 2 -12 -4 -9 -6 3 -10 10 -10 16 0 14 7 11 14 -7z m62 -30 c1
-9 0 -13 -4 -10 -3 4 -7 14 -8 22 -1 9 0 13 4 10 3 -4 7 -14 8 -22z m38 18 c3
-5 -1 -9 -9 -9 -8 0 -12 4 -9 9 3 4 7 8 9 8 2 0 6 -4 9 -8z m141 -1 c3 -5 2
-12 -3 -15 -5 -3 -9 1 -9 9 0 17 3 19 12 6z m-115 -41 c0 -5 -5 -10 -11 -10
-5 0 -7 5 -4 10 3 6 8 10 11 10 2 0 4 -4 4 -10z m-165 -9 c3 -5 2 -12 -3 -15
-5 -3 -9 1 -9 9 0 17 3 19 12 6z m-200 -11 c3 -5 1 -10 -4 -10 -6 0 -11 5 -11
10 0 6 2 10 4 10 3 0 8 -4 11 -10z m261 -16 c1 -9 0 -13 -4 -10 -3 4 -7 14 -8
22 -1 9 0 13 4 10 3 -4 7 -14 8 -22z m-176 2 c0 -2 -7 -7 -16 -10 -8 -3 -12
-2 -9 4 6 10 25 14 25 6z m-66 -28 c-3 -4 -11 -5 -19 -1 -21 7 -19 12 4 10 11
0 18 -5 15 -9z m-97 -15 c-4 -3 -1 -13 6 -22 11 -14 10 -14 -5 -2 -16 12 -16
31 -1 31 4 0 3 -3 0 -7z m300 -8 c0 -8 -4 -12 -9 -9 -5 3 -6 10 -3 15 9 13 12
11 12 -6z m-102 -15 c3 -5 1 -10 -4 -10 -6 0 -11 5 -11 10 0 6 2 10 4 10 3 0
8 -4 11 -10z m-244 -47 c13 -16 12 -17 -3 -4 -10 7 -18 15 -18 17 0 8 8 3 21
-13z m265 -9 c1 -9 0 -13 -4 -10 -3 4 -7 14 -8 22 -1 9 0 13 4 10 3 -4 7 -14
8 -22z m-82 -42 c2 -4 -5 -9 -17 -9 -17 -2 -19 0 -7 7 18 12 18 12 24 2z m-93
-19 c13 -16 12 -17 -3 -4 -10 7 -18 15 -18 17 0 8 8 3 21 -13z m-126 -22 c3
-5 2 -12 -3 -15 -5 -3 -9 1 -9 9 0 17 3 19 12 6z m565 -5 c0 -2 -8 -10 -17
-17 -16 -13 -17 -12 -4 4 13 16 21 21 21 13z m-595 -16 c3 -6 -1 -7 -9 -4 -18
7 -21 14 -7 14 6 0 13 -4 16 -10z m250 0 c3 -5 1 -10 -4 -10 -6 0 -11 5 -11
10 0 6 2 10 4 10 3 0 8 -4 11 -10z m150 0 c3 -6 -1 -7 -9 -4 -18 7 -21 14 -7
14 6 0 13 -4 16 -10z m-229 -45 c-1 -8 -5 -17 -8 -21 -5 -4 -4 16 1 34 3 9 9
-1 7 -13z m-156 -55 c0 -5 -2 -10 -4 -10 -3 0 -8 5 -11 10 -3 6 -1 10 4 10 6
0 11 -4 11 -10z m40 0 c0 -5 -5 -10 -11 -10 -5 0 -7 5 -4 10 3 6 8 10 11 10 2
0 4 -4 4 -10z m117 -5 c0 -8 -4 -12 -9 -9 -5 3 -6 10 -3 15 9 13 12 11 12 -6z
m137 -13 c3 -5 -1 -9 -9 -9 -8 0 -12 4 -9 9 3 4 7 8 9 8 2 0 6 -4 9 -8z m-374
-16 c0 -3 -4 -8 -10 -11 -5 -3 -10 -1 -10 4 0 6 5 11 10 11 6 0 10 -2 10 -4z
m114 -8 c-3 -4 -11 -5 -19 -1 -21 7 -19 12 4 10 11 0 18 -5 15 -9z m62 0 c3
-4 -1 -5 -10 -4 -8 1 -18 5 -22 8 -3 4 1 5 10 4 8 -1 18 -5 22 -8z m44 2 c0
-5 -5 -10 -11 -10 -5 0 -7 5 -4 10 3 6 8 10 11 10 2 0 4 -4 4 -10z m3460 -74
c0 -3 -4 -8 -10 -11 -5 -3 -10 -1 -10 4 0 6 5 11 10 11 6 0 10 -2 10 -4z m-64
-21 c-1 -8 -5 -17 -8 -21 -5 -4 -4 16 1 34 3 9 9 -1 7 -13z m-101 -4 c-9 -8
-36 -10 -30 -2 2 4 11 8 20 8 8 0 13 -3 10 -6z m229 1 c3 -5 -1 -9 -9 -9 -8 0
-12 4 -9 9 3 4 7 8 9 8 2 0 6 -4 9 -8z m111 -1 c-9 -8 -36 -10 -30 -2 2 4 11
8 20 8 8 0 13 -3 10 -6z m-71 -19 c3 -5 -1 -9 -9 -9 -8 0 -12 4 -9 9 3 4 7 8
9 8 2 0 6 -4 9 -8z m-493 -35 c-10 -9 -11 -8 -5 6 3 10 9 15 12 12 3 -3 0 -11
-7 -18z m329 17 c0 -8 -19 -13 -24 -6 -3 5 1 9 9 9 8 0 15 -2 15 -3z m-44 -26
c3 -4 -1 -5 -10 -4 -8 1 -18 5 -22 8 -3 4 1 5 10 4 8 -1 18 -5 22 -8z m169 2
c3 -6 -1 -7 -9 -4 -18 7 -21 14 -7 14 6 0 13 -4 16 -10z m-230 -40 c3 -5 1
-10 -4 -10 -6 0 -11 5 -11 10 0 6 2 10 4 10 3 0 8 -4 11 -10z m120 0 c3 -5 1
-10 -4 -10 -6 0 -11 5 -11 10 0 6 2 10 4 10 3 0 8 -4 11 -10z m102 -15 c0 -8
-4 -15 -9 -15 -10 0 -11 14 -1 23 9 10 10 9 10 -8z m-300 -20 c0 -8 -4 -12 -9
-9 -5 3 -6 10 -3 15 9 13 12 11 12 -6z m99 -7 c3 -4 -1 -5 -10 -4 -8 1 -18 5
-22 8 -3 4 1 5 10 4 8 -1 18 -5 22 -8z m-63 -23 c4 -8 3 -16 -1 -19 -4 -3 -9
4 -9 15 -2 23 3 25 10 4z m-57 -17 c3 -4 -1 -5 -10 -4 -8 1 -18 5 -22 8 -3 4
1 5 10 4 8 -1 18 -5 22 -8z m104 8 c0 -3 -4 -8 -10 -11 -5 -3 -10 -1 -10 4 0
6 5 11 10 11 6 0 10 -2 10 -4z m200 0 c0 -3 -4 -8 -10 -11 -5 -3 -10 -1 -10 4
0 6 5 11 10 11 6 0 10 -2 10 -4z m-60 -10 c0 -2 -6 -9 -14 -15 -11 -9 -16 -9
-22 0 -4 7 -3 9 4 5 6 -3 13 -2 17 4 6 10 15 14 15 6z m-365 -35 c3 -5 2 -12
-3 -15 -5 -3 -9 1 -9 9 0 17 3 19 12 6z m60 0 c-9 -8 -36 -10 -30 -2 2 4 11 8
20 8 8 0 13 -3 10 -6z m265 -16 c0 -7 -30 -13 -34 -7 -3 4 4 9 15 9 10 1 19 0
19 -2z m-185 -25 c3 -5 1 -10 -4 -10 -6 0 -11 5 -11 10 0 6 2 10 4 10 3 0 8
-4 11 -10z m65 -4 c0 -2 -8 -10 -17 -17 -16 -13 -17 -12 -4 4 13 16 21 21 21
13z m-224 -41 c-1 -8 -5 -17 -8 -21 -5 -4 -4 16 1 34 3 9 9 -1 7 -13z m44 9
c0 -8 -19 -13 -24 -6 -3 5 1 9 9 9 8 0 15 -2 15 -3z m-85 -43 c-9 -8 -36 -10
-30 -2 2 4 11 8 20 8 8 0 13 -3 10 -6z m262 -6 c0 -8 -4 -12 -9 -9 -5 3 -6 10
-3 15 9 13 12 11 12 -6z m-80 -10 c0 -8 -4 -12 -9 -9 -5 3 -6 10 -3 15 9 13
12 11 12 -6z m-177 -19 c0 -3 -4 -8 -10 -11 -5 -3 -10 -1 -10 4 0 6 5 11 10
11 6 0 10 -2 10 -4z m100 -50 c0 -2 -8 -10 -17 -17 -16 -13 -17 -12 -4 4 13
16 21 21 21 13z m-226 -34 c2 -4 -5 -9 -17 -9 -17 -2 -19 0 -7 7 18 12 18 12
24 2z m61 -1 c-9 -8 -36 -10 -30 -2 2 4 11 8 20 8 8 0 13 -3 10 -6z m161 -46
c-1 -8 -5 -17 -8 -21 -5 -4 -4 16 1 34 3 9 9 -1 7 -13z m-200 -10 c-1 -8 -5
-17 -8 -21 -5 -4 -4 16 1 34 3 9 9 -1 7 -13z m-165 -38 c-10 -9 -11 -8 -5 6 3
10 9 15 12 12 3 -3 0 -11 -7 -18z m249 9 c0 -2 -8 -10 -17 -17 -16 -13 -17
-12 -4 4 13 16 21 21 21 13z m64 -14 c3 -5 -1 -9 -9 -9 -8 0 -12 4 -9 9 3 4 7
8 9 8 2 0 6 -4 9 -8z m-207 -27 c0 -8 -4 -12 -9 -9 -5 3 -6 10 -3 15 9 13 12
11 12 -6z m-81 -40 c-1 -8 -5 -17 -8 -21 -5 -4 -4 16 1 34 3 9 9 -1 7 -13z
m84 5 c0 -5 -2 -10 -4 -10 -3 0 -8 5 -11 10 -3 6 -1 10 4 10 6 0 11 -4 11 -10z
m93 -55 c-7 -21 -12 -19 -10 4 0 11 5 18 9 15 4 -3 5 -11 1 -19z m-233 -7 c0
-4 -4 -8 -9 -8 -6 0 -12 4 -15 8 -3 5 1 9 9 9 8 0 15 -4 15 -9z m206 0 c3 -4
-1 -5 -10 -4 -8 1 -18 5 -22 8 -3 4 1 5 10 4 8 -1 18 -5 22 -8z m-296 -34 c0
-8 -19 -13 -24 -6 -3 5 1 9 9 9 8 0 15 -2 15 -3z m220 3 c0 -2 -10 -12 -22
-23 l-23 -19 19 23 c18 21 26 27 26 19z m-170 -22 c0 -7 -30 -13 -34 -7 -3 4
4 9 15 9 10 1 19 0 19 -2z m-20 -39 c0 -3 -4 -8 -10 -11 -5 -3 -10 -1 -10 4 0
6 5 11 10 11 6 0 10 -2 10 -4z m-84 -31 c-1 -8 -5 -17 -8 -21 -5 -4 -4 16 1
34 3 9 9 -1 7 -13z m40 -31 c1 -9 0 -13 -4 -10 -3 4 -7 14 -8 22 -1 9 0 13 4
10 3 -4 7 -14 8 -22z m39 16 c3 -5 1 -10 -4 -10 -6 0 -11 5 -11 10 0 6 2 10 4
10 3 0 8 -4 11 -10z m105 -25 c-5 -7 -9 -14 -7 -16 1 -2 0 -3 -2 -1 -11 7 -7
29 5 29 9 0 11 -4 4 -12z m-224 -20 c-1 -8 -5 -17 -8 -21 -5 -4 -4 16 1 34 3
9 9 -1 7 -13z m244 -31 c0 -8 -19 -13 -24 -6 -3 5 1 9 9 9 8 0 15 -2 15 -3z
m-120 -7 c0 -2 -10 -12 -22 -23 l-23 -19 19 23 c18 21 26 27 26 19z m-244 -22
c-1 -8 -5 -17 -8 -21 -5 -4 -4 16 1 34 3 9 9 -1 7 -13z m44 -9 c0 -3 -4 -8
-10 -11 -5 -3 -10 -1 -10 4 0 6 5 11 10 11 6 0 10 -2 10 -4z m-65 -45 c-9 -8
-36 -10 -30 -2 2 4 11 8 20 8 8 0 13 -3 10 -6z m-85 -17 c0 -8 -19 -13 -24 -6
-3 5 1 9 9 9 8 0 15 -2 15 -3z m65 -13 c3 -5 2 -12 -3 -15 -5 -3 -9 1 -9 9 0
17 3 19 12 6z m145 -15 c0 -2 -8 -10 -17 -17 -16 -13 -17 -12 -4 4 13 16 21
21 21 13z m-224 -21 c-1 -8 -5 -17 -8 -21 -5 -4 -4 16 1 34 3 9 9 -1 7 -13z
m299 6 c-9 -8 -36 -10 -30 -2 2 4 11 8 20 8 8 0 13 -3 10 -6z m-338 -56 c0 -8
-4 -12 -9 -9 -5 3 -6 10 -3 15 9 13 12 11 12 -6z m177 -23 c3 -5 -1 -9 -9 -9
-8 0 -12 4 -9 9 3 4 7 8 9 8 2 0 6 -4 9 -8z m-198 -24 c3 -4 -1 -5 -10 -4 -8
1 -18 5 -22 8 -3 4 1 5 10 4 8 -1 18 -5 22 -8z m104 2 c0 -5 -2 -10 -4 -10 -3
0 -8 5 -11 10 -3 6 -1 10 4 10 6 0 11 -4 11 -10z m136 -15 c1 -8 -2 -15 -6
-15 -5 0 -8 9 -7 20 1 21 10 18 13 -5z m-39 -15 c-2 -23 -10 -17 -12 10 -1 10
2 17 6 14 4 -2 7 -13 6 -24z m-282 -9 c3 -5 2 -12 -3 -15 -5 -3 -9 1 -9 9 0
17 3 19 12 6z m125 4 c0 -7 -30 -13 -34 -7 -3 4 4 9 15 9 10 1 19 0 19 -2z
m-202 -50 c-3 -3 -9 2 -12 12 -6 14 -5 15 5 6 7 -7 10 -15 7 -18z m95 -10 c-7
-21 -12 -19 -10 4 0 11 5 18 9 15 4 -3 5 -11 1 -19z m47 21 c0 -3 -4 -8 -10
-11 -5 -3 -10 -1 -10 4 0 6 5 11 10 11 6 0 10 -2 10 -4z m40 -6 c0 -5 -2 -10
-4 -10 -3 0 -8 5 -11 10 -3 6 -1 10 4 10 6 0 11 -4 11 -10z m200 4 c0 -8 -19
-13 -24 -6 -3 5 1 9 9 9 8 0 15 -2 15 -3z m-130 -18 c0 -2 -8 -10 -17 -17 -16
-13 -17 -12 -4 4 13 16 21 21 21 13z m-370 -66 c0 -5 -5 -10 -11 -10 -5 0 -7
5 -4 10 3 6 8 10 11 10 2 0 4 -4 4 -10z m136 -2 c3 -4 -1 -5 -10 -4 -8 1 -18
5 -22 8 -3 4 1 5 10 4 8 -1 18 -5 22 -8z m-216 -18 c0 -5 -5 -10 -11 -10 -5 0
-7 5 -4 10 3 6 8 10 11 10 2 0 4 -4 4 -10z m134 -18 c2 -4 -5 -9 -17 -9 -17
-2 -19 0 -7 7 18 12 18 12 24 2z m181 -30 c-3 -3 -11 0 -18 7 -9 10 -8 11 6 5
10 -3 15 -9 12 -12z m-240 -12 c3 -5 1 -10 -4 -10 -6 0 -11 5 -11 10 0 6 2 10
4 10 3 0 8 -4 11 -10z m19 -38 c2 -4 -5 -9 -17 -9 -17 -2 -19 0 -7 7 18 12 18
12 24 2z m-53 -19 c13 -16 12 -17 -3 -4 -10 7 -18 15 -18 17 0 8 8 3 21 -13z
m274 -2 c-9 -8 -36 -10 -30 -2 2 4 11 8 20 8 8 0 13 -3 10 -6z m-355 -21 c0
-5 -2 -10 -4 -10 -3 0 -8 5 -11 10 -3 6 -1 10 4 10 6 0 11 -4 11 -10z m237
-15 c0 -8 -4 -12 -9 -9 -5 3 -6 10 -3 15 9 13 12 11 12 -6z m-37 -1 c0 -8 -19
-13 -24 -6 -3 5 1 9 9 9 8 0 15 -2 15 -3z m71 -11 c13 -16 12 -17 -3 -4 -10 7
-18 15 -18 17 0 8 8 3 21 -13z m-171 -13 c0 -5 -2 -10 -4 -10 -3 0 -8 5 -11
10 -3 6 -1 10 4 10 6 0 11 -4 11 -10z m180 -15 c0 -7 -30 -13 -34 -7 -3 4 4 9
15 9 10 1 19 0 19 -2z m-304 -41 c1 -9 0 -13 -4 -10 -3 4 -7 14 -8 22 -1 9 0
13 4 10 3 -4 7 -14 8 -22z m184 12 c0 -2 -8 -10 -17 -17 -16 -13 -17 -12 -4 4
13 16 21 21 21 13z m-220 -56 c0 -5 -2 -10 -4 -10 -3 0 -8 5 -11 10 -3 6 -1
10 4 10 6 0 11 -4 11 -10z m-60 -20 c0 -5 -2 -10 -4 -10 -3 0 -8 5 -11 10 -3
6 -1 10 4 10 6 0 11 -4 11 -10z m277 -5 c0 -8 -4 -12 -9 -9 -5 3 -6 10 -3 15
9 13 12 11 12 -6z m-187 -11 c0 -8 -19 -13 -24 -6 -3 5 1 9 9 9 8 0 15 -2 15
-3z m40 2 c0 -2 -8 -10 -17 -17 -16 -13 -17 -12 -4 4 13 16 21 21 21 13z
m-114 -28 c3 -4 -1 -5 -10 -4 -8 1 -18 5 -22 8 -3 4 1 5 10 4 8 -1 18 -5 22
-8z m104 -42 c0 -2 -8 -10 -17 -17 -16 -13 -17 -12 -4 4 13 16 21 21 21 13z
m-4 -81 c-1 -8 -5 -17 -8 -21 -5 -4 -4 16 1 34 3 9 9 -1 7 -13z m-56 -55 c0
-5 -5 -10 -11 -10 -5 0 -7 5 -4 10 3 6 8 10 11 10 2 0 4 -4 4 -10z m-85 -29
c3 -5 2 -12 -3 -15 -5 -3 -9 1 -9 9 0 17 3 19 12 6z m5 -71 c0 -5 -5 -10 -11
-10 -5 0 -7 5 -4 10 3 6 8 10 11 10 2 0 4 -4 4 -10z"/>
</g>
</svg>
