<?xml version="1.0" encoding="UTF-8"?>
<svg width="40px" height="40px" viewBox="0 0 40 40" version="1.1" xmlns="http://www.w3.org/2000/svg" xmlns:xlink="http://www.w3.org/1999/xlink">
    <!-- Generator: Sketch 49.3 (51167) - http://www.bohemiancoding.com/sketch -->
    <title>Icon/Colab</title>
    <desc>Created with Sketch.</desc>
    <defs></defs>
    <g id="Icon/Colab" stroke="none" stroke-width="1" fill="none" fill-rule="evenodd">
        <path d="M24.9835678,23.2388167 C26.8772069,23.2418928 28.4177112,21.7653711 28.4644677,19.9012624 C28.5118394,18.0217733 26.8778221,16.339769 24.998333,16.3342321 C23.1163831,16.3293103 21.5082049,17.9836299 21.5414266,19.8914189 C21.5746483,21.7838276 23.0677809,23.2357406 24.9835678,23.2388167 M24.8556026,13.0003691 C28.6902525,12.9591496 31.7208133,15.9115777 31.7632633,19.7308472 C31.8050981,23.5291993 28.7942242,26.6262035 25.0260178,26.6618862 C21.3070288,26.6975688 18.2032571,23.6061015 18.1558854,19.8194385 C18.1103593,16.1564343 21.1716809,13.039743 24.8556026,13.0003691" id="Fill-1" fill="#F7D95D"></path>
        <path d="M19.2237182,14.7171332 C18.6472595,15.6331919 18.1101747,16.4852679 17.7508878,17.0555745 C16.3303509,16.8531679 15.1220639,16.5135679 13.9359248,16.5793962 C13.2862553,16.6150788 12.5479944,17.224144 12.0705858,17.7686114 C11.0314836,18.9535201 11.1274575,20.8077852 12.1357988,22.0154569 C13.3656183,23.4895178 14.9731813,23.6137917 17.3817574,22.3532113 C17.9545247,23.1566852 18.5371356,23.9755395 19.1031356,24.7691699 C17.2310291,27.2675677 12.8236118,27.101459 10.4827097,25.0946199 C7.63056197,22.6503613 7.15622937,18.4791875 9.47436844,15.5790528 C11.8706401,12.5817137 16.0172052,12.138142 19.2237182,14.7171332" id="Fill-4" fill="#F7D95D"></path>
    </g>
</svg>