<?xml version="1.0" encoding="UTF-8"?>
<svg width="130px" height="80px" viewBox="0 0 130 80" version="1.1" xmlns="http://www.w3.org/2000/svg" xmlns:xlink="http://www.w3.org/1999/xlink">
    <!-- Generator: Sketch 49.3 (51167) - http://www.bohemiancoding.com/sketch -->
    <title>Computer</title>
    <desc>Created with Sketch.</desc>
    <defs></defs>
    <g id="Desktop" stroke="none" stroke-width="1" fill="none" fill-rule="evenodd">
        <g id="Homepage" transform="translate(-155.000000, -2230.000000)" fill="#000000" fill-rule="nonzero">
            <g id="Pillars" transform="translate(155.000000, 1620.000000)">
                <g id="Private" transform="translate(0.000000, 610.000000)">
                    <path d="M7.36666667,79.8666667 L72.8333333,79.8666667 L72.8333333,72.6666667 C72.8333333,69.4666667 74.3,66.5333333 76.7,64.4 C78.8333333,62.6666667 80.9666667,61.0666667 82.9666667,59.7333333 L17.2333333,59.7333333 L17.2333333,52.4 L17.2333333,49.8666667 L17.2333333,9.86666667 C17.2333333,9.86666667 17.2333333,9.86666667 17.2333333,9.86666667 L63.5,9.86666667 L95.5,9.86666667 C95.5,9.86666667 95.5,9.86666667 95.5,9.86666667 L95.5,20.9333333 C97.6333333,19.7333333 100.033333,19.0666667 102.7,19.0666667 L105.1,19.0666667 C105.233333,19.0666667 105.366667,19.0666667 105.366667,19.0666667 L105.366667,9.73333333 C105.366667,4.4 100.966667,0 95.6333333,0 L59.1,0 L17.2333333,0 C11.9,0 7.5,4.4 7.5,9.73333333 L7.5,49.7333333 L7.5,52 L7.5,59.2 C7.5,60.4 7.1,61.7333333 6.3,62.6666667 L1.23333333,68.8 C0.833333333,69.2 0.7,69.8666667 0.7,70.4 L0.7,73.3333333 C0.7,76.9333333 3.63333333,79.8666667 7.36666667,79.8666667 Z M45.9,69.6 L66.9666667,69.6 L66.9666667,70.2666667 C66.9666667,72.1333333 65.5,73.6 63.6333333,73.6 L49.2333333,73.6 C47.3666667,73.6 45.9,72.1333333 45.9,70.2666667 L45.9,69.6 Z M127.633333,68.8 C128.833333,69.7333333 129.5,71.2 129.5,72.8 L129.5,80 L103.9,80 L78.3,80 L78.3,72.8 C78.3,71.3333333 78.9666667,69.8666667 80.1666667,68.8 C86.7,63.4666667 93.7666667,59.8666667 95.1,59.2 C95.2333333,59.0666667 95.3666667,58.9333333 95.3666667,58.8 L95.3666667,48.6666667 C94.0333333,47.8666667 93.2333333,46.4 93.2333333,44.6666667 L93.2333333,34.1333333 C93.2333333,28.9333333 97.5,24.6666667 102.7,24.6666667 L103.766667,24.6666667 L105.1,24.6666667 C110.3,24.6666667 114.566667,28.9333333 114.566667,34.1333333 L114.566667,44.6666667 C114.566667,46.2666667 113.766667,47.7333333 112.433333,48.6666667 L112.433333,58.8 C112.433333,58.9333333 112.566667,59.2 112.7,59.2 C114.166667,59.8666667 121.1,63.4666667 127.633333,68.8 Z M69.3666667,22.2666667 L68.7,22.1333333 C67.9,22 67.1,22 66.3,21.7333333 C63.6333333,21.0666667 60.9666667,19.8666667 58.0333333,17.8666667 C57.6333333,17.6 57.1,17.2 56.3,17.2 C55.5,17.2 55.1,17.6 54.5666667,17.8666667 C50.7,20.5333333 47.1,22 43.5,22.1333333 C42.5666667,22.1333333 40.9666667,22.5333333 40.9666667,24.8 L40.9666667,28.4 C40.9666667,30.8 40.9666667,33.3333333 40.9666667,35.7333333 C40.9666667,36.6666667 41.1,37.7333333 41.3666667,38.9333333 C41.9,41.3333333 43.2333333,43.6 45.3666667,45.7333333 C47.9,48.4 51.2333333,50.4 55.5,52 C55.7666667,52.1333333 56.0333333,52.1333333 56.4333333,52.1333333 C56.8333333,52.1333333 57.2333333,52 57.5,51.8666667 L58.5666667,51.4666667 C59.5,51.0666667 60.3,50.6666667 61.2333333,50.2666667 C64.5666667,48.5333333 67.1,46.4 68.9666667,43.8666667 C70.7,41.6 71.5,39.3333333 71.6333333,36.8 C71.7666667,35.3333333 71.7666667,33.6 71.7666667,32 L71.7666667,24.6666667 C71.7666667,23.3333333 70.8333333,22.4 69.3666667,22.2666667 Z M68.0333333,36.8 C67.9,38.5333333 67.3666667,40.1333333 66.0333333,41.7333333 C64.4333333,43.8666667 62.3,45.6 59.5,47.0666667 C58.7,47.4666667 57.9,47.8666667 57.1,48.1333333 C56.8333333,48.2666667 56.7,48.2666667 56.4333333,48.4 L56.4333333,35.0666667 L44.8333333,35.0666667 C44.8333333,32.9333333 44.8333333,30.6666667 44.8333333,28.5333333 L44.8333333,25.7333333 C48.7,25.3333333 52.4333333,23.8666667 56.4333333,21.2 L56.4333333,35.0666667 L68.0333333,35.0666667 C68.0333333,35.6 68.0333333,36.2666667 68.0333333,36.8 Z" id="Computer"></path>
                </g>
            </g>
        </g>
    </g>
</svg>