<?xml version="1.0" encoding="UTF-8"?>
<svg width="24px" height="24px" viewBox="0 0 24 24" version="1.1" xmlns="http://www.w3.org/2000/svg" xmlns:xlink="http://www.w3.org/1999/xlink">
    <!-- Generator: Sketch 49.3 (51167) - http://www.bohemiancoding.com/sketch -->
    <title>Icon/Email</title>
    <desc>Created with Sketch.</desc>
    <defs></defs>
    <g id="Icon/Email" stroke="none" stroke-width="1" fill="none" fill-rule="evenodd">
        <path d="M24,9.08035714 L24,19.7142857 C24,20.3035714 23.7901786,20.8080357 23.3705357,21.2276786 C22.9508929,21.6473214 22.4464286,21.8571429 21.8571429,21.8571429 L2.14285714,21.8571429 C1.55357143,21.8571429 1.04910714,21.6473214 0.629464286,21.2276786 C0.209821429,20.8080357 0,20.3035714 0,19.7142857 L0,9.08035714 C0.392857143,9.51785714 0.84375,9.90625 1.35267857,10.2455357 C4.58482143,12.4419643 6.80357143,13.9821429 8.00892857,14.8660714 C8.51785714,15.2410714 8.93080357,15.5334821 9.24776786,15.7433036 C9.56473214,15.953125 9.98660714,16.1674107 10.5133929,16.3861607 C11.0401786,16.6049107 11.53125,16.7142857 11.9866071,16.7142857 L12.0133929,16.7142857 C12.46875,16.7142857 12.9598214,16.6049107 13.4866071,16.3861607 C14.0133929,16.1674107 14.4352679,15.953125 14.7522321,15.7433036 C15.0691964,15.5334821 15.4821429,15.2410714 15.9910714,14.8660714 C17.5089286,13.7678571 19.7321429,12.2276786 22.6607143,10.2455357 C23.1696429,9.89732143 23.6160714,9.50892857 24,9.08035714 Z M24,5.14285714 C24,5.84821429 23.78125,6.52232143 23.34375,7.16517857 C22.90625,7.80803571 22.3616071,8.35714286 21.7098214,8.8125 C18.3526786,11.1428571 16.2633929,12.59375 15.4419643,13.1651786 C15.3526786,13.2276786 15.1629464,13.3638393 14.8727679,13.5736607 C14.5825893,13.7834821 14.3415179,13.953125 14.1495536,14.0825893 C13.9575893,14.2120536 13.7254464,14.3571429 13.453125,14.5178571 C13.1808036,14.6785714 12.9241071,14.7991071 12.6830357,14.8794643 C12.4419643,14.9598214 12.21875,15 12.0133929,15 L11.9866071,15 C11.78125,15 11.5580357,14.9598214 11.3169643,14.8794643 C11.0758929,14.7991071 10.8191964,14.6785714 10.546875,14.5178571 C10.2745536,14.3571429 10.0424107,14.2120536 9.85044643,14.0825893 C9.65848214,13.953125 9.41741071,13.7834821 9.12723214,13.5736607 C8.83705357,13.3638393 8.64732143,13.2276786 8.55803571,13.1651786 C7.74553571,12.59375 6.57589286,11.7790179 5.04910714,10.7209821 C3.52232143,9.66294643 2.60714286,9.02678571 2.30357143,8.8125 C1.75,8.4375 1.22767857,7.921875 0.736607143,7.265625 C0.245535714,6.609375 0,6 0,5.4375 C0,4.74107143 0.185267857,4.16071429 0.555803571,3.69642857 C0.926339286,3.23214286 1.45535714,3 2.14285714,3 L21.8571429,3 C22.4375,3 22.9397321,3.20982143 23.3638393,3.62946429 C23.7879464,4.04910714 24,4.55357143 24,5.14285714 Z" id="Shape" fill="#999999" fill-rule="nonzero"></path>
    </g>
</svg>