<?xml version="1.0" encoding="UTF-8"?>
<svg width="512px" height="393px" viewBox="0 0 512 393" version="1.1" xmlns="http://www.w3.org/2000/svg" xmlns:xlink="http://www.w3.org/1999/xlink">
    <!-- Generator: Sketch 53 (72520) - https://sketchapp.com -->
    <title>Shape</title>
    <desc>Created with Sketch.</desc>
    <g id="Page-1" stroke="none" stroke-width="1" fill="none" fill-rule="evenodd">
        <path d="M416,384 L332,384 C325.4,384 320,378.6 320,372 L320,332 C320,325.4 325.4,320 332,320 L416,320 C433.7,320 448,305.7 448,288 L448,96 C448,78.3 433.7,64 416,64 L332,64 C325.4,64 320,58.6 320,52 L320,12 C320,5.4 325.4,0 332,0 L416,0 C469,0 512,43 512,96 L512,288 C512,341 469,384 416,384 Z M369,183 L201,15 C186,6.21724894e-15 160,10.5 160,32 L160,128 L24,128 C10.7,128 0,138.7 0,152 L0,248 C0,261.3 10.7,272 24,272 L160,272 L160,368 C160,389.5 186,400 201,385 L369,217 C378.3,207.6 378.3,192.4 369,183 Z" id="Shape" fill="#62A4AE" fill-rule="nonzero"></path>
    </g>
</svg>