<?xml version="1.0" encoding="UTF-8"?>
<svg width="24px" height="24px" viewBox="0 0 24 24" version="1.1" xmlns="http://www.w3.org/2000/svg" xmlns:xlink="http://www.w3.org/1999/xlink">
    <!-- Generator: Sketch 49.3 (51167) - http://www.bohemiancoding.com/sketch -->
    <title>Icon/Github Black</title>
    <desc>Created with Sketch.</desc>
    <defs></defs>
    <g id="Icon/Github-Black" stroke="none" stroke-width="1" fill="none" fill-rule="evenodd">
        <path d="M11.9516736,0 C5.35179642,0 0,5.35085907 0,11.9516736 C0,17.2323252 3.42451231,21.7122929 8.17331186,23.292664 C8.7705909,23.4032712 8.98993066,23.0333932 8.98993066,22.7176939 C8.98993066,22.4327397 8.9787762,21.4911722 8.97371452,20.4925201 C5.64865498,21.2154977 4.94704895,19.0823717 4.94704895,19.0823717 C4.40338629,17.7009061 3.6200434,17.3336526 3.6200434,17.3336526 C2.53571761,16.5918343 3.70178027,16.6070194 3.70178027,16.6070194 C4.90196244,16.6913808 5.53392341,17.8386965 5.53392341,17.8386965 C6.59987715,19.6658717 8.32984921,19.1375816 9.01186464,18.8322869 C9.11909741,18.0597235 9.42889139,17.5325582 9.77064898,17.2341061 C7.11607547,16.931811 4.32539882,15.9070069 4.32539882,11.3274926 C4.32539882,10.0227022 4.79229256,8.95646729 5.55688847,8.119508 C5.43278341,7.81843138 5.02372413,6.60287667 5.67265112,4.95660991 C5.67265112,4.95660991 6.67627113,4.63538027 8.96021669,6.18172558 C9.91350103,5.91683064 10.9359618,5.78410197 11.9516736,5.77960269 C12.9673854,5.78410197 13.990596,5.91683064 14.945755,6.18172558 C17.2269823,4.63538027 18.2291963,4.95660991 18.2291963,4.95660991 C18.8797167,6.60287667 18.47047,7.81843138 18.3463649,8.119508 C19.1126481,8.95646729 19.5763548,10.0226085 19.5763548,11.3274926 C19.5763548,15.9178801 16.780429,16.9287177 14.1191066,17.2245452 C14.5477565,17.5954543 14.9297264,18.3228375 14.9297264,19.4378146 C14.9297264,21.0369327 14.9158536,22.3240071 14.9158536,22.7176939 C14.9158536,23.0357365 15.1309753,23.4084267 15.7368779,23.2910705 C20.4830529,21.7089185 23.9032534,17.2305442 23.9032534,11.9516736 C23.9032534,5.35085907 18.5522069,0 11.9516736,0" id="Shape" fill="#24292E" fill-rule="nonzero"></path>
    </g>
</svg>