<?xml version="1.0" encoding="UTF-8"?>
<svg width="62px" height="80px" viewBox="0 0 62 80" version="1.1" xmlns="http://www.w3.org/2000/svg" xmlns:xlink="http://www.w3.org/1999/xlink">
    <!-- Generator: Sketch 49.3 (51167) - http://www.bohemiancoding.com/sketch -->
    <title>Lock</title>
    <desc>Created with Sketch.</desc>
    <defs></defs>
    <g id="Desktop" stroke="none" stroke-width="1" fill="none" fill-rule="evenodd">
        <g id="Homepage" transform="translate(-189.000000, -1620.000000)" fill="#000000" fill-rule="nonzero">
            <g id="Pillars" transform="translate(155.000000, 1620.000000)">
                <g id="Secure" transform="translate(34.000000, 0.000000)">
                    <path d="M6.36859324,80 L55.0490731,80 C58.5387132,80 61.4176663,77.2082879 61.4176663,73.6314068 L61.4176663,38.7350055 C61.4176663,35.2453653 58.6259542,32.3664122 55.0490731,32.3664122 L54.8745911,23.9912759 C54.8745911,10.7306434 44.1439477,0 30.8833152,0 C17.6226827,0 6.89203926,10.7306434 6.89203926,23.9912759 L6.89203926,32.3664122 L6.36859324,32.3664122 C2.87895311,32.3664122 0,35.1581243 0,38.7350055 L0,73.6314068 C0,77.1210469 2.87895311,80 6.36859324,80 Z M33.5877863,57.1428571 L33.5877863,59.4983642 C33.5877863,59.7600872 33.5005453,60.0218103 33.3260632,60.1962923 L31.1450382,62.3773173 C31.0577972,62.4645583 31.0577972,62.5517993 31.1450382,62.6390403 L32.7153762,64.2093784 C32.8026172,64.2966194 32.8026172,64.4711014 32.7153762,64.5583424 L30.9705562,66.3031625 C30.8833152,66.3904035 30.8833152,66.4776445 30.9705562,66.5648855 L32.4536532,68.0479826 C32.6281352,68.2224646 32.7153762,68.3969466 32.7153762,68.5714286 L32.7153762,69.1821156 L30.6215921,71.1886587 C30.4471101,71.3631407 30.1853871,71.3631407 30.0109051,71.1886587 L28.1788441,69.6183206 C27.917121,69.3565976 27.742639,69.0076336 27.742639,68.5714286 L27.742639,57.0556161 C25.997819,56.0087241 24.7764449,54.089422 24.7764449,51.9083969 C24.7764449,48.5932388 27.393675,45.9760087 30.7088332,45.9760087 C34.0239913,45.9760087 36.6412214,48.5932388 36.6412214,51.9083969 C36.6412214,54.176663 35.4198473,56.0959651 33.5877863,57.1428571 Z M17.4482007,24.0785169 C17.4482007,16.6630316 23.4678299,10.5561614 30.9705562,10.5561614 C38.3860414,10.5561614 44.4929117,16.5757906 44.4929117,24.0785169 L44.4929117,32.4536532 L17.4482007,32.4536532 L17.4482007,24.0785169 Z" id="Lock"></path>
                </g>
            </g>
        </g>
    </g>
</svg>