<?xml version="1.0" encoding="UTF-8"?>
<svg width="80px" height="80px" viewBox="0 0 80 80" version="1.1" xmlns="http://www.w3.org/2000/svg" xmlns:xlink="http://www.w3.org/1999/xlink">
    <!-- Generator: Sketch 49.3 (51167) - http://www.bohemiancoding.com/sketch -->
    <title>Nodes</title>
    <desc>Created with Sketch.</desc>
    <defs></defs>
    <g id="Desktop" stroke="none" stroke-width="1" fill="none" fill-rule="evenodd">
        <g id="Homepage" transform="translate(-180.000000, -2840.000000)" fill="#000000" fill-rule="nonzero">
            <g id="Pillars" transform="translate(155.000000, 1620.000000)">
                <g id="Value-Aligned" transform="translate(24.000000, 1220.000000)">
                    <path d="M7.57023612,46.6148724 C10.4115236,46.6148724 12.8088599,44.8390677 13.7855524,42.3529412 L28.08078,42.3529412 C28.4359409,44.1287458 29.1462628,45.8157603 30.1229553,47.3251942 L20.089659,57.4472808 C17.6035325,56.381798 14.6734548,56.8257492 12.6312794,58.8679245 C10.0563626,61.4428413 10.0563626,65.7047725 12.6312794,68.3684795 C15.2061962,70.9433962 19.4681273,70.9433962 22.1318343,68.3684795 C24.1740097,66.3263041 24.6179609,63.3962264 23.5524781,60.9100999 L33.6745646,50.7880133 C35.1839986,51.7647059 36.7822228,52.4750277 38.6468177,52.8301887 L38.6468177,67.1254162 C36.1606912,68.1021088 34.3848865,70.4994451 34.3848865,73.3407325 C34.3848865,77.0699223 37.4037544,80 41.044154,80 C44.6845535,80 47.7034215,76.9811321 47.7034215,73.3407325 C47.7034215,70.4994451 45.9276168,68.1021088 43.4414903,67.1254162 L43.4414903,52.8301887 C45.2172949,52.4750277 46.9043094,51.7647059 48.4137433,50.7880133 L58.5358299,60.9100999 C57.4703471,63.3962264 57.9142983,66.3263041 59.9564736,68.3684795 C62.5313904,70.9433962 66.7933216,70.9433962 69.4570286,68.3684795 C72.0319453,65.7935627 72.0319453,61.5316315 69.4570286,58.8679245 C67.4148532,56.8257492 64.4847755,56.381798 61.998649,57.4472808 L51.7877722,47.3251942 C52.7644648,45.8157603 53.4747866,44.2175361 53.8299475,42.3529412 L68.1251751,42.3529412 C69.1018676,44.8390677 71.4992039,46.6148724 74.3404914,46.6148724 C78.0696812,46.6148724 80.9997589,43.5960044 80.9997589,39.9556049 C80.9997589,36.3152053 77.9808909,33.2963374 74.3404914,33.2963374 C71.4992039,33.2963374 69.1018676,35.0721421 68.1251751,37.5582686 L53.8299475,37.5582686 C53.4747866,35.7824639 52.7644648,34.0954495 51.7877722,32.5860155 L61.9098588,22.463929 C64.3959853,23.5294118 67.326063,23.0854606 69.3682383,21.0432852 C71.9431551,18.4683685 71.9431551,14.2064373 69.3682383,11.5427303 C66.7933216,8.96781354 62.5313904,8.96781354 59.8676834,11.5427303 C57.825508,13.5849057 57.3815569,16.5149834 58.4470397,19.0011099 L48.3249531,29.1231964 C46.8155191,28.1465039 45.2172949,27.436182 43.3527,27.0810211 L43.3527,12.8745838 C45.8388266,11.8978912 47.6146312,9.50055494 47.6146312,6.65926748 C47.6146312,2.93007769 44.5957633,0 40.9553638,0 C37.3149642,0 34.2960963,3.01886792 34.2960963,6.65926748 C34.2960963,9.50055494 36.0719009,11.8978912 38.5580275,12.8745838 L38.5580275,27.1698113 C36.7822228,27.5249723 35.0952084,28.2352941 33.5857744,29.2119867 L23.4636878,19.0899001 C24.5291706,16.6037736 24.0852195,13.6736959 22.0430441,11.6315205 C19.4681273,9.05660377 15.2061962,9.05660377 12.5424892,11.6315205 C9.96757241,14.2064373 9.96757241,18.4683685 12.5424892,21.1320755 C14.5846645,23.1742508 17.5147422,23.618202 20.0008687,22.5527192 L30.1229553,32.6748058 C29.1462628,34.1842397 28.4359409,35.7824639 28.08078,37.6470588 L13.8743427,37.6470588 C12.8976501,35.1609323 10.5003138,33.3851276 7.65902635,33.3851276 C3.92983656,33.3851276 0.999758868,36.4039956 0.999758868,40.0443951 C0.910968635,43.6847947 3.92983656,46.6148724 7.57023612,46.6148724 Z M40.9553638,33.1187569 C44.6845535,33.1187569 47.7922117,36.1376249 47.7922117,39.9556049 C47.7922117,43.6847947 44.7733438,46.7924528 40.9553638,46.7924528 C37.226174,46.7924528 34.1185158,43.7735849 34.1185158,39.9556049 C34.1185158,36.2264151 37.226174,33.1187569 40.9553638,33.1187569 Z" id="Nodes"></path>
                </g>
            </g>
        </g>
    </g>
</svg>