<?xml version="1.0" encoding="UTF-8"?>
<svg width="24px" height="24px" viewBox="0 0 24 24" version="1.1" xmlns="http://www.w3.org/2000/svg" xmlns:xlink="http://www.w3.org/1999/xlink">
    <!-- Generator: Sketch 49.3 (51167) - http://www.bohemiancoding.com/sketch -->
    <title>Icon/OpenCollective</title>
    <desc>Created with Sketch.</desc>
    <defs></defs>
    <g id="Icon/OpenCollective" stroke="none" stroke-width="1" fill="none" fill-rule="evenodd">
        <path d="M19.6863123,11.967189 C19.6863123,13.4699836 19.2263671,14.9084055 18.4412712,16.1504877 L21.5802082,19.2894904 C23.150926,17.1952438 24,14.6480219 24,12.0301808 C24,9.28372603 23.0845151,6.79804932 21.5157699,4.77231781 L18.4398247,7.84385753 C19.2505644,9.06463562 19.6836164,10.4972712 19.6848658,11.9627836 L19.6863123,11.967189" id="Fill-1" fill="#B8CEE1"></path>
        <path d="M11.9670575,19.6820384 C7.70932603,19.6739507 4.2595726,16.2248548 4.25069589,11.967189 C4.25713973,7.70774795 7.70761644,4.25595616 11.9670575,4.24793425 C13.5372493,4.24793425 14.9756712,4.70787945 16.1533151,5.49297534 L19.2263671,2.41696438 C17.1315945,0.847627397 14.5845041,-0.000394520548 11.9670575,0.000131506849 C5.36100822,0.000131506849 0,5.36113973 0,11.967189 C0,18.5702795 5.36100822,23.9342466 11.9670575,23.9342466 C14.597063,23.9414795 17.1533589,23.0656438 19.2263671,21.4470575 L16.0873644,18.3095671 C14.9741589,19.2250521 13.5386959,19.6820384 11.9670575,19.6820384" id="Fill-3" fill="#81A3C9"></path>
    </g>
</svg>