<?xml version="1.0" encoding="UTF-8"?>
<svg width="384px" height="512px" viewBox="0 0 384 512" version="1.1" xmlns="http://www.w3.org/2000/svg" xmlns:xlink="http://www.w3.org/1999/xlink">
    <!-- Generator: Sketch 52.6 (67491) - http://www.bohemiancoding.com/sketch -->
    <title>Shape</title>
    <desc>Created with Sketch.</desc>
    <g id="Page-1" stroke="none" stroke-width="1" fill="none" fill-rule="evenodd">
        <path d="M288,256 L96,256 L96,320 L288,320 L288,256 Z M377,105 L279.1,7 C274.6,2.5 268.5,0 262.1,0 L256,0 L256,128 L384,128 L384,121.9 C384,115.6 381.5,109.5 377,105 Z M224,136 L224,0 L24,0 C10.7,0 0,10.7 0,24 L0,488 C0,501.3 10.7,512 24,512 L360,512 C373.3,512 384,501.3 384,488 L384,160 L248,160 C234.8,160 224,149.2 224,136 Z M64,72 C64,67.58 67.58,64 72,64 L152,64 C156.42,64 160,67.58 160,72 L160,88 C160,92.42 156.42,96 152,96 L72,96 C67.58,96 64,92.42 64,88 L64,72 Z M64,136 C64,131.58 67.58,128 72,128 L152,128 C156.42,128 160,131.58 160,136 L160,152 C160,156.42 156.42,160 152,160 L72,160 C67.58,160 64,156.42 64,152 L64,136 Z M320,440 C320,444.42 316.42,448 312,448 L232,448 C227.58,448 224,444.42 224,440 L224,424 C224,419.58 227.58,416 232,416 L312,416 C316.42,416 320,419.58 320,424 L320,440 Z M320,240 L320,336 C320,344.84 312.84,352 304,352 L80,352 C71.16,352 64,344.84 64,336 L64,240 C64,231.16 71.16,224 80,224 L304,224 C312.84,224 320,231.16 320,240 Z" id="Shape" fill="#62A4AE" fill-rule="nonzero"></path>
    </g>
</svg>