<?xml version="1.0" encoding="UTF-8"?>
<svg width="24px" height="24px" viewBox="0 0 24 24" version="1.1" xmlns="http://www.w3.org/2000/svg" xmlns:xlink="http://www.w3.org/1999/xlink">
    <!-- Generator: Sketch 49.3 (51167) - http://www.bohemiancoding.com/sketch -->
    <title>Icon/Slack</title>
    <desc>Created with Sketch.</desc>
    <defs></defs>
    <g id="Icon/Slack" stroke="none" stroke-width="1" fill="none" fill-rule="evenodd">
        <path d="M2.10762162,12.6987755 C1.2167027,12.7056327 0.462,12.171102 0.18372973,11.3368163 C0.173406597,11.3053084 0.163782583,11.2735726 0.154864865,11.2416327 C-0.148378378,10.1732245 0.439621622,9.0555102 1.49351351,8.69763265 L18.3972973,2.99591837 C18.598007,2.93745895 18.8057163,2.90691732 19.0146486,2.90514286 C19.9292432,2.89795918 20.7047027,3.4442449 20.9897838,4.29616327 L21.0150811,4.37844898 C21.3312973,5.49126531 20.5456216,6.48457143 19.6042703,6.80293878 C19.6036216,6.80342857 19.4323784,6.86171429 2.79421622,12.5810612 C2.57306389,12.6569638 2.3412618,12.6967055 2.10762162,12.6987755 Z" id="Shape" fill="#70CADB" fill-rule="nonzero"></path>
        <path d="M4.92518919,21.0685714 C4.0272973,21.075102 3.27,20.5480816 2.99497297,19.7257143 C2.98453314,19.6944308 2.9748009,19.6629125 2.96578378,19.6311837 C2.65832432,18.5500408 3.24567568,17.4205714 4.30313514,17.0622041 L21.2075676,11.3082449 C21.426,11.2347755 21.6515676,11.1972245 21.8784324,11.195102 C22.7787568,11.1882449 23.5697838,11.7420408 23.8488649,12.5737143 L23.8748108,12.6602449 C24.0381081,13.235102 23.9416216,13.8811429 23.616973,14.3910204 C23.375027,14.7701224 22.6118919,15.1038367 22.6118919,15.1038367 L5.64324324,20.9453061 C5.41181668,21.0241851 5.16949933,21.0658929 4.92518919,21.068898 L4.92518919,21.0685714 Z" id="Shape" fill="#E01765" fill-rule="nonzero"></path>
        <path d="M18.996973,21.1049796 C18.0981014,21.1136702 17.2958564,20.5387548 17.0096757,19.6808163 L11.3680541,2.80897959 L11.3398378,2.71428571 C11.0341622,1.63836735 11.622,0.516081633 12.6755676,0.158530612 C12.8863784,0.0871836735 13.1043243,0.0499591837 13.3237297,0.048 C13.6496757,0.0455510204 13.9650811,0.119510204 14.2621622,0.267265306 C14.7564238,0.513355901 15.1328146,0.947719098 15.3079459,1.47412245 L20.9490811,18.3444898 L20.9654595,18.3986939 C21.2823243,19.5157551 20.6957838,20.6386939 19.6422162,20.9962449 C19.4341076,21.066244 19.2163789,21.1029351 18.996973,21.1049796 Z" id="Shape" fill="#E8A723" fill-rule="nonzero"></path>
        <path d="M10.6110811,23.9467755 C9.71169099,23.9554011 8.90906683,23.3799872 8.62297297,22.5214694 L2.98281081,5.65028571 C2.80630908,5.1246115 2.84475973,4.54983922 3.08968201,4.05274197 C3.33460429,3.55564471 3.76587726,3.17706016 4.28837838,3.0004898 C4.49679559,2.93034431 4.71485055,2.8935434 4.93459459,2.89142857 C5.83361737,2.88249267 6.6360848,3.45747365 6.92221622,4.31559184 L12.5625405,21.1874286 C12.7391268,21.7133568 12.7005499,22.2884191 12.455326,22.7856647 C12.210102,23.2829103 11.7783968,23.6614489 11.2555135,23.8377143 C11.0475013,23.9078969 10.8298055,23.9446468 10.6104324,23.9466122 L10.6110811,23.9466122 L10.6110811,23.9467755 Z" id="Shape" fill="#3EB890" fill-rule="nonzero"></path>
        <polygon id="Shape" fill="#CC2027" fill-rule="nonzero" points="16.2157297 17.3054694 20.1494595 15.9513469 18.8635135 12.106449 14.9252432 13.4463673 16.2157297 17.3054694"></polygon>
        <polygon id="Shape" fill="#361238" fill-rule="nonzero" points="7.84281081 20.1877551 11.7762162 18.8337959 10.4805405 14.9595102 6.54324324 16.2999184 7.84281081 20.1877551"></polygon>
        <polygon id="Shape" fill="#65863A" fill-rule="nonzero" points="13.4151892 8.93061224 17.3492432 7.57828571 16.0783784 3.77828571 12.137027 5.1077551"></polygon>
        <polygon id="Shape" fill="#1A937D" fill-rule="nonzero" points="5.0412973 11.8089796 8.97535135 10.4566531 7.68891892 6.60816327 3.74756757 7.93746939 5.0412973 11.8089796"></polygon>
    </g>
</svg>