<?xml version="1.0" encoding="UTF-8"?>
<svg width="24px" height="24px" viewBox="0 0 24 24" version="1.1" xmlns="http://www.w3.org/2000/svg" xmlns:xlink="http://www.w3.org/1999/xlink">
    <!-- Generator: Sketch 49.3 (51167) - http://www.bohemiancoding.com/sketch -->
    <title>Icon/YouTube Colored</title>
    <desc>Created with Sketch.</desc>
    <defs></defs>
    <g id="Icon/YouTube-Colored" stroke="none" stroke-width="1" fill="none" fill-rule="evenodd">
        <path d="M23.3927928,5.8081641 C23.8919329,7.67138417 23.8919329,11.5588943 23.8919329,11.5588943 C23.8919329,11.5588943 23.8919329,15.4464044 23.3927928,17.3094278 C23.1180495,18.3374045 22.3083728,19.1470812 21.2803961,19.4218246 C19.417176,19.9211613 11.9460058,19.9211613 11.9460058,19.9211613 C11.9460058,19.9211613 4.47483549,19.9211613 2.61161543,19.4218246 C1.58363872,19.1470812 0.773962026,18.3374045 0.499218683,17.3094278 C7.86655403e-05,15.4464044 7.86655403e-05,11.5588943 7.86655403e-05,11.5588943 C7.86655403e-05,11.5588943 7.86655403e-05,7.67138417 0.499218683,5.8081641 C0.773962026,4.7801874 1.58363872,3.97070737 2.61161543,3.69596402 C4.47483549,3.19662734 11.9460058,3.19662734 11.9460058,3.19662734 C11.9460058,3.19662734 19.417176,3.19662734 21.2803961,3.69596402 C22.3083728,3.97070737 23.1180495,4.7801874 23.3927928,5.8081641 Z M9.55680067,15.1427314 L15.7639942,11.5588746 L9.55680067,7.97501784 L9.55680067,15.1427314 Z" id="YouTube" fill="#CC181E"></path>
    </g>
</svg>