<?xml version="1.0" encoding="utf-8"?>
<!-- Generator: Adobe Illustrator 22.0.1, SVG Export Plug-In . SVG Version: 6.00 Build 0)  -->
<svg version="1.1" id="Layer_1" xmlns="http://www.w3.org/2000/svg" xmlns:xlink="http://www.w3.org/1999/xlink" x="0px" y="0px"
	 viewBox="0 0 24 24" style="enable-background:new 0 0 24 24;" xml:space="preserve">
<style type="text/css">
	.st0{fill:#F1BF7A;}
</style>
<path class="st0" d="M12,3.2c4.8,0,8.8,3.9,8.8,8.8s-3.9,8.8-8.8,8.8s-8.8-4-8.8-8.8S7.2,3.2,12,3.2 M12,2C6.5,2,2,6.5,2,12
	s4.5,10,10,10s10-4.5,10-10S17.5,2,12,2L12,2z"/>
<path class="st0" d="M12,7.6c2.4,0,4.4,2,4.4,4.4s-2,4.4-4.4,4.4s-4.4-2-4.4-4.4S9.6,7.6,12,7.6 M12,6.4c-3.1,0-5.6,2.5-5.6,5.6
	s2.5,5.6,5.6,5.6s5.6-2.5,5.6-5.6S15.1,6.4,12,6.4L12,6.4z"/>
<path class="st0" d="M12,8.4c-2,0-3.6,1.6-3.6,3.6H12V8.4z"/>
<path class="st0" d="M12,5.7V3.9c-4.5,0-8.1,3.6-8.1,8.1h1.8C5.7,8.5,8.5,5.7,12,5.7z"/>
</svg>
