<?xml version="1.0" encoding="utf-8"?>
<!-- Generator: Adobe Illustrator 22.0.1, SVG Export Plug-In . SVG Version: 6.00 Build 0)  -->
<svg version="1.1" id="Layer_1" xmlns="http://www.w3.org/2000/svg" xmlns:xlink="http://www.w3.org/1999/xlink" x="0px" y="0px"
	 viewBox="0 0 24 24" style="enable-background:new 0 0 24 24;" xml:space="preserve">
<style type="text/css">
	.st0{fill:#5CB5A4;}
</style>
<path class="st0" d="M12,3.5C2,3.5,2,4.3,2,5.2c0,0.3,0,0.5,0.4,0.7L8.8,14v4.8c0,1.5,2.5,1.6,3.2,1.6s3.2-0.1,3.2-1.6V14L21.7,6
	C22,5.8,22,5.5,22,5.2C22,4.3,22,3.5,12,3.5z M13.4,13.5v5c-0.3,0.1-0.7,0.2-1.4,0.2c-0.6,0-1.1-0.1-1.4-0.2v-5L5.2,6.5
	C6.6,6.7,8.8,6.8,12,6.8s5.4-0.1,6.8-0.2L13.4,13.5z"/>
</svg>
