<svg width="30" height="31" viewBox="0 0 30 31" fill="none" xmlns="http://www.w3.org/2000/svg">
<path d="M26.6667 0.291016C27.5507 0.291016 28.3986 0.642205 29.0237 1.26733C29.6488 1.89245 30 2.74029 30 3.62435V26.9577C30 27.8417 29.6488 28.6896 29.0237 29.3147C28.3986 29.9398 27.5507 30.291 26.6667 30.291H3.33333C2.44928 30.291 1.60143 29.9398 0.976311 29.3147C0.351189 28.6896 0 27.8417 0 26.9577V3.62435C0 2.74029 0.351189 1.89245 0.976311 1.26733C1.60143 0.642205 2.44928 0.291016 3.33333 0.291016H26.6667ZM25.8333 26.1243V17.291C25.8333 15.85 25.2609 14.468 24.2419 13.4491C23.223 12.4301 21.841 11.8577 20.4 11.8577C18.9833 11.8577 17.3333 12.7243 16.5333 14.0243V12.1743H11.8833V26.1243H16.5333V17.9077C16.5333 16.6243 17.5667 15.5743 18.85 15.5743C19.4688 15.5743 20.0623 15.8202 20.4999 16.2578C20.9375 16.6954 21.1833 17.2888 21.1833 17.9077V26.1243H25.8333ZM6.46667 9.55768C7.20927 9.55768 7.92146 9.26268 8.44657 8.73758C8.97167 8.21248 9.26667 7.50029 9.26667 6.75768C9.26667 5.20768 8.01667 3.94102 6.46667 3.94102C5.71964 3.94102 5.00321 4.23777 4.47498 4.766C3.94675 5.29423 3.65 6.01066 3.65 6.75768C3.65 8.30768 4.91667 9.55768 6.46667 9.55768ZM8.78333 26.1243V12.1743H4.16667V26.1243H8.78333Z" fill="#2D2B3A"/>
</svg>
