<svg width="32" height="33" viewBox="0 0 32 33" fill="none" xmlns="http://www.w3.org/2000/svg">
<path d="M6.73684 20.5015C6.73684 21.3949 6.38196 22.2517 5.75025 22.8834C5.11855 23.5151 4.26178 23.87 3.36842 23.87C2.47506 23.87 1.61829 23.5151 0.986588 22.8834C0.354886 22.2517 0 21.3949 0 20.5015C0 19.6082 0.354886 18.7514 0.986588 18.1197C1.61829 17.488 2.47506 17.1331 3.36842 17.1331H6.73684V20.5015ZM8.42105 20.5015C8.42105 19.6082 8.77594 18.7514 9.40764 18.1197C10.0393 17.488 10.8961 17.1331 11.7895 17.1331C12.6828 17.1331 13.5396 17.488 14.1713 18.1197C14.803 18.7514 15.1579 19.6082 15.1579 20.5015V28.9226C15.1579 29.816 14.803 30.6727 14.1713 31.3044C13.5396 31.9361 12.6828 32.291 11.7895 32.291C10.8961 32.291 10.0393 31.9361 9.40764 31.3044C8.77594 30.6727 8.42105 29.816 8.42105 28.9226V20.5015ZM11.7895 7.02786C10.8961 7.02786 10.0393 6.67297 9.40764 6.04127C8.77594 5.40957 8.42105 4.5528 8.42105 3.65944C8.42105 2.76608 8.77594 1.9093 9.40764 1.2776C10.0393 0.645902 10.8961 0.291016 11.7895 0.291016C12.6828 0.291016 13.5396 0.645902 14.1713 1.2776C14.803 1.9093 15.1579 2.76608 15.1579 3.65944V7.02786H11.7895ZM11.7895 8.71207C12.6828 8.71207 13.5396 9.06696 14.1713 9.69866C14.803 10.3304 15.1579 11.1871 15.1579 12.0805C15.1579 12.9739 14.803 13.8306 14.1713 14.4623C13.5396 15.094 12.6828 15.4489 11.7895 15.4489H3.36842C2.47506 15.4489 1.61829 15.094 0.986588 14.4623C0.354886 13.8306 0 12.9739 0 12.0805C0 11.1871 0.354886 10.3304 0.986588 9.69866C1.61829 9.06696 2.47506 8.71207 3.36842 8.71207H11.7895ZM25.2632 12.0805C25.2632 11.1871 25.618 10.3304 26.2497 9.69866C26.8814 9.06696 27.7382 8.71207 28.6316 8.71207C29.5249 8.71207 30.3817 9.06696 31.0134 9.69866C31.6451 10.3304 32 11.1871 32 12.0805C32 12.9739 31.6451 13.8306 31.0134 14.4623C30.3817 15.094 29.5249 15.4489 28.6316 15.4489H25.2632V12.0805ZM23.5789 12.0805C23.5789 12.9739 23.2241 13.8306 22.5924 14.4623C21.9607 15.094 21.1039 15.4489 20.2105 15.4489C19.3172 15.4489 18.4604 15.094 17.8287 14.4623C17.197 13.8306 16.8421 12.9739 16.8421 12.0805V3.65944C16.8421 2.76608 17.197 1.9093 17.8287 1.2776C18.4604 0.645902 19.3172 0.291016 20.2105 0.291016C21.1039 0.291016 21.9607 0.645902 22.5924 1.2776C23.2241 1.9093 23.5789 2.76608 23.5789 3.65944V12.0805ZM20.2105 25.5542C21.1039 25.5542 21.9607 25.9091 22.5924 26.5408C23.2241 27.1725 23.5789 28.0292 23.5789 28.9226C23.5789 29.816 23.2241 30.6727 22.5924 31.3044C21.9607 31.9361 21.1039 32.291 20.2105 32.291C19.3172 32.291 18.4604 31.9361 17.8287 31.3044C17.197 30.6727 16.8421 29.816 16.8421 28.9226V25.5542H20.2105ZM20.2105 23.87C19.3172 23.87 18.4604 23.5151 17.8287 22.8834C17.197 22.2517 16.8421 21.3949 16.8421 20.5015C16.8421 19.6082 17.197 18.7514 17.8287 18.1197C18.4604 17.488 19.3172 17.1331 20.2105 17.1331H28.6316C29.5249 17.1331 30.3817 17.488 31.0134 18.1197C31.6451 18.7514 32 19.6082 32 20.5015C32 21.3949 31.6451 22.2517 31.0134 22.8834C30.3817 23.5151 29.5249 23.87 28.6316 23.87H20.2105Z" fill="#2D2B3A"/>
</svg>
