<svg width="34" height="34" viewBox="0 0 34 34" fill="none" xmlns="http://www.w3.org/2000/svg">
<path d="M17 0.624329C14.8113 0.624329 12.6441 1.05542 10.622 1.893C8.59989 2.73058 6.76257 3.95824 5.21493 5.50588C2.08932 8.63149 0.333374 12.8707 0.333374 17.291C0.333374 24.6577 5.11671 30.9077 11.7334 33.1243C12.5667 33.2577 12.8334 32.741 12.8334 32.291V29.4743C8.21671 30.4743 7.23337 27.241 7.23337 27.241C6.46671 25.3077 5.38337 24.791 5.38337 24.791C3.86671 23.7577 5.50004 23.791 5.50004 23.791C7.16671 23.9077 8.05004 25.5077 8.05004 25.5077C9.50004 28.041 11.95 27.291 12.9 26.891C13.05 25.8077 13.4834 25.0743 13.95 24.6577C10.25 24.241 6.36671 22.8077 6.36671 16.4577C6.36671 14.6077 7.00004 13.1243 8.08337 11.941C7.91671 11.5243 7.33337 9.791 8.25004 7.541C8.25004 7.541 9.65004 7.091 12.8334 9.241C14.15 8.87433 15.5834 8.691 17 8.691C18.4167 8.691 19.85 8.87433 21.1667 9.241C24.35 7.091 25.75 7.541 25.75 7.541C26.6667 9.791 26.0834 11.5243 25.9167 11.941C27 13.1243 27.6334 14.6077 27.6334 16.4577C27.6334 22.8243 23.7334 24.2243 20.0167 24.641C20.6167 25.1577 21.1667 26.1743 21.1667 27.7243V32.291C21.1667 32.741 21.4334 33.2743 22.2834 33.1243C28.9 30.891 33.6667 24.6577 33.6667 17.291C33.6667 15.1023 33.2356 12.935 32.398 10.9129C31.5605 8.89084 30.3328 7.05353 28.7851 5.50588C27.2375 3.95824 25.4002 2.73058 23.3781 1.893C21.356 1.05542 19.1887 0.624329 17 0.624329Z" fill="#2D2B3A"/>
</svg>
