<svg width="34" height="33" viewBox="0 0 34 33" fill="none" xmlns="http://www.w3.org/2000/svg">
<path d="M28.4906 4.80041C25.4431 1.7529 21.3098 0.0408325 17 0.0408325C12.6901 0.0408326 8.55683 1.7529 5.50933 4.80041C2.46183 7.84791 0.749756 11.9812 0.749756 16.291C0.749756 20.6009 2.46183 24.7342 5.50933 27.7817C8.55683 30.8292 12.6901 32.5412 17 32.5412C21.3098 32.5412 25.4431 30.8292 28.4906 27.7817C31.5381 24.7342 33.2502 20.6009 33.2502 16.291C33.2502 11.9812 31.5381 7.84791 28.4906 4.80041ZM10.75 26.291C10.75 25.628 11.0133 24.9921 11.4822 24.5233C11.951 24.0544 12.5869 23.791 13.25 23.791C13.913 23.791 14.5489 24.0544 15.0177 24.5233C15.4866 24.9921 15.75 25.628 15.75 26.291V29.977C14.0068 29.8194 12.3097 29.3304 10.75 28.5363V26.291ZM18.25 26.291C18.25 25.628 18.5133 24.9921 18.9822 24.5233C19.451 24.0544 20.0869 23.791 20.75 23.791C21.413 23.791 22.0489 24.0544 22.5177 24.5233C22.9866 24.9921 23.25 25.628 23.25 26.291V28.5363C21.6902 29.3304 19.9931 29.8194 18.25 29.977V26.291ZM13.7609 17.541H20.239L22.0484 21.4629C21.1483 21.2203 20.1983 21.2347 19.306 21.5045C18.4137 21.7744 17.6148 22.2888 17 22.9895C16.3851 22.2888 15.5863 21.7744 14.6939 21.5045C13.8016 21.2347 12.8516 21.2203 11.9515 21.4629L13.7609 17.541ZM14.9156 15.041L17 10.5238L19.0843 15.041H14.9156ZM26.7218 26.0145C26.4093 26.327 26.0843 26.6192 25.75 26.8957V23.791C25.7502 23.6102 25.7107 23.4315 25.6343 23.2676L18.1343 7.01759C18.0341 6.80111 17.8741 6.61782 17.6731 6.48937C17.4721 6.36091 17.2385 6.29266 17 6.29266C16.7614 6.29266 16.5278 6.36091 16.3268 6.48937C16.1258 6.61782 15.9658 6.80111 15.8656 7.01759L8.36558 23.2676C8.28921 23.4315 8.24974 23.6102 8.24995 23.791V26.8957C7.91558 26.6192 7.59058 26.327 7.27808 26.0145C5.35487 24.0916 4.04507 21.6416 3.51433 18.9743C2.98359 16.307 3.25575 13.5422 4.29638 11.0296C5.33702 8.51694 7.09939 6.36934 9.36061 4.85836C11.6218 3.34739 14.2804 2.54091 17 2.54091C19.7195 2.54091 22.3781 3.34739 24.6393 4.85836C26.9005 6.36934 28.6629 8.51694 29.7035 11.0296C30.7442 13.5422 31.0163 16.307 30.4856 18.9743C29.9548 21.6416 28.645 24.0916 26.7218 26.0145Z" fill="#2D2B3A"/>
</svg>
