<?xml version="1.0" encoding="UTF-8"?>
<svg id="Layer_2" data-name="Layer 2" xmlns="http://www.w3.org/2000/svg" viewBox="0 0 300 76.71">
  <defs>
    <style>
      .cls-1 {
        stroke-width: 0px;
      }

      .cls-1, .cls-2 {
        fill: #000;
      }
    </style>
  </defs>
  <g id="Logos">
    <g>
      <path class="cls-2" d="M290.33,50.08c1.93,0,3.38-.64,4.34-1.92.96-1.28,1.49-2.8,1.57-4.57.03-.3.04-.83.04-1.57s-.01-1.31-.04-1.61c-.06-1.68-.59-3.13-1.59-4.36-1.01-1.23-2.45-1.84-4.32-1.84-1.98,0-3.43.62-4.34,1.86-.91,1.24-1.41,2.87-1.49,4.88l-.04,1.2c0,5.29,1.96,7.94,5.87,7.94ZM289.54,53.3c-2.89,0-5.06-.94-6.51-2.81-1.45-1.87-2.23-4.24-2.34-7.11l-.04-1.24.04-1.24c.11-2.84.9-5.2,2.36-7.09,1.46-1.89,3.62-2.83,6.49-2.83s5.1,1.02,6.7,3.06v-9.55c0-.28.09-.5.27-.68.18-.18.41-.27.68-.27h1.86c.28,0,.5.09.68.27.18.18.27.41.27.68v27.83c0,.28-.09.5-.27.68-.18.18-.41.27-.68.27h-1.78c-.28,0-.5-.09-.66-.27-.17-.18-.25-.41-.25-.68v-2.16c-1.57,2.09-3.84,3.14-6.82,3.14ZM273.01,40.61v-.12c0-1.93-.52-3.5-1.57-4.71-1.05-1.21-2.45-1.82-4.22-1.82s-3.2.61-4.22,1.82c-1.02,1.21-1.53,2.78-1.53,4.71v.12h11.53ZM267.23,53.3c-2.81,0-5.06-.88-6.74-2.63-1.68-1.75-2.6-4.14-2.77-7.17l-.04-1.41.04-1.36c.17-2.98,1.09-5.35,2.77-7.11,1.68-1.76,3.93-2.65,6.74-2.65,3.03,0,5.38.96,7.05,2.89,1.67,1.93,2.5,4.55,2.5,7.85v.74c0,.28-.09.5-.27.68-.18.18-.41.27-.68.27h-14.34v.37c.08,1.79.63,3.32,1.65,4.59,1.02,1.27,2.37,1.9,4.05,1.9,1.3,0,2.35-.25,3.16-.76.81-.51,1.43-1.04,1.84-1.59.25-.33.44-.53.58-.6.14-.07.37-.1.7-.1h1.82c.25,0,.46.07.64.21.18.14.27.32.27.54,0,.61-.37,1.34-1.12,2.19-.74.85-1.8,1.59-3.16,2.21-1.36.62-2.93.93-4.69.93ZM234.95,53.27c-.28,0-.5-.09-.68-.27-.18-.18-.27-.41-.27-.68v-20.36c0-.28.09-.5.27-.68.18-.18.41-.27.68-.27h1.78c.3,0,.54.08.7.25.17.17.25.4.25.7v2.2c.83-1.02,1.78-1.81,2.87-2.36,1.09-.55,2.45-.83,4.07-.83,2.65,0,4.7.85,6.16,2.54,1.46,1.69,2.19,3.93,2.19,6.72v12.08c0,.28-.09.5-.27.68-.18.18-.41.27-.68.27h-1.9c-.28,0-.5-.09-.68-.27-.18-.18-.27-.41-.27-.68v-11.83c0-1.98-.48-3.53-1.45-4.63-.96-1.1-2.34-1.65-4.13-1.65s-3.17.56-4.22,1.67c-1.05,1.12-1.57,2.65-1.57,4.61v11.83c0,.28-.09.5-.27.68-.18.18-.41.27-.68.27h-1.9ZM225.05,53.28c-.28,0-.5-.09-.68-.27-.18-.18-.27-.41-.27-.68v-20.36c0-.28.09-.5.27-.68.18-.18.41-.27.68-.27h1.82c.28,0,.5.09.68.27.18.18.27.41.27.68v20.36c0,.28-.09.5-.27.68-.18.18-.41.27-.68.27h-1.82ZM225.97,23.43l2.64,2.64-2.64,2.64-2.64-2.64,2.64-2.64ZM193.3,53.27c-.28,0-.5-.09-.68-.27-.18-.18-.27-.41-.27-.68v-27.76c0-.3.08-.54.25-.72.17-.18.4-.27.7-.27h1.94c.5,0,.84.21,1.03.62l8.8,16.91,8.89-16.91c.22-.41.55-.62.99-.62h1.94c.3,0,.54.09.7.27.17.18.25.42.25.72v27.76c0,.28-.09.5-.27.68-.18.18-.41.27-.68.27h-1.9c-.28,0-.5-.09-.66-.27-.17-.18-.25-.41-.25-.68v-21.31l-7.07,13.68c-.28.58-.72.87-1.32.87h-1.24c-.58,0-1.02-.29-1.32-.87l-7.03-13.68v21.31c0,.28-.09.5-.27.68-.18.18-.41.27-.68.27h-1.86ZM168.57,53.27c-.28,0-.5-.09-.68-.27-.18-.18-.27-.41-.27-.68v-20.36c0-.28.09-.5.27-.68.18-.18.41-.27.68-.27h1.78c.3,0,.54.08.7.25.17.17.25.4.25.7v2.2c.83-1.02,1.78-1.81,2.87-2.36,1.09-.55,2.45-.83,4.07-.83,2.65,0,4.7.85,6.16,2.54,1.46,1.69,2.19,3.93,2.19,6.72v12.08c0,.28-.09.5-.27.68-.18.18-.41.27-.68.27h-1.9c-.28,0-.5-.09-.68-.27-.18-.18-.27-.41-.27-.68v-11.83c0-1.98-.48-3.53-1.45-4.63-.96-1.1-2.34-1.65-4.13-1.65s-3.17.56-4.22,1.67c-1.05,1.12-1.57,2.65-1.57,4.61v11.83c0,.28-.09.5-.27.68-.18.18-.41.27-.68.27h-1.9ZM159.19,40.61v-.12c0-1.93-.52-3.5-1.57-4.71-1.05-1.21-2.45-1.82-4.22-1.82s-3.2.61-4.22,1.82c-1.02,1.21-1.53,2.78-1.53,4.71v.12h11.53ZM153.41,53.3c-2.81,0-5.06-.88-6.74-2.63-1.68-1.75-2.6-4.14-2.77-7.17l-.04-1.41.04-1.36c.17-2.98,1.09-5.35,2.77-7.11,1.68-1.76,3.93-2.65,6.74-2.65,3.03,0,5.38.96,7.05,2.89,1.67,1.93,2.5,4.55,2.5,7.85v.74c0,.28-.09.5-.27.68-.18.18-.41.27-.68.27h-14.34v.37c.08,1.79.63,3.32,1.65,4.59,1.02,1.27,2.37,1.9,4.05,1.9,1.3,0,2.35-.25,3.16-.76.81-.51,1.43-1.04,1.84-1.59.25-.33.44-.53.58-.6.14-.07.37-.1.7-.1h1.82c.25,0,.46.07.64.21.18.14.27.32.27.54,0,.61-.37,1.34-1.12,2.19-.74.85-1.8,1.59-3.16,2.21s-2.93.93-4.69.93ZM130.05,50.08c1.98,0,3.43-.62,4.34-1.86.91-1.24,1.41-2.87,1.49-4.88.03-.28.04-.68.04-1.2,0-5.29-1.96-7.94-5.87-7.94-1.93,0-3.38.64-4.36,1.92-.98,1.28-1.49,2.79-1.55,4.53-.03.3-.04.84-.04,1.61s.01,1.31.04,1.61c.06,1.68.59,3.13,1.59,4.36,1.01,1.23,2.45,1.84,4.32,1.84ZM121.33,60.74c-.28,0-.5-.08-.68-.25-.18-.17-.27-.4-.27-.7v-27.83c0-.3.09-.54.27-.7.18-.17.41-.25.68-.25h1.74c.3,0,.54.08.7.25.17.17.25.4.25.7v2.2c1.6-2.12,3.87-3.18,6.82-3.18s5.06.92,6.51,2.75c1.45,1.83,2.21,4.17,2.29,7.01.03.3.04.77.04,1.41s-.01,1.1-.04,1.41c-.08,2.81-.85,5.14-2.29,6.99-1.45,1.85-3.62,2.77-6.51,2.77s-5.18-1.05-6.7-3.14v9.63c0,.28-.09.5-.27.68-.18.18-.41.27-.68.27h-1.86ZM103.31,49.87c2.2,0,3.97-.67,5.29-2,1.32-1.34,2.04-3.38,2.15-6.14.06-1.65.08-2.76.08-3.31,0-.61-.03-1.71-.08-3.31-.11-2.76-.83-4.81-2.15-6.16-1.32-1.35-3.09-2.03-5.29-2.03s-3.97.68-5.31,2.03c-1.34,1.35-2.05,3.4-2.13,6.16-.03.8-.04,1.9-.04,3.31s.01,2.48.04,3.31c.08,2.76.79,4.8,2.11,6.14,1.32,1.34,3.1,2,5.33,2ZM103.31,53.3c-3.58,0-6.35-.94-8.31-2.83-1.96-1.89-2.99-4.73-3.1-8.54-.03-.83-.04-2-.04-3.51s.01-2.67.04-3.47c.11-3.75,1.18-6.59,3.2-8.52,2.03-1.93,4.76-2.89,8.2-2.89s6.17.96,8.18,2.89c2.01,1.93,3.07,4.77,3.18,8.52.06,1.6.08,2.76.08,3.47s-.03,1.86-.08,3.51c-.11,3.8-1.14,6.65-3.08,8.54-1.94,1.89-4.71,2.83-8.29,2.83Z"/>
      <g>
        <path class="cls-1" d="M74.4,34.35l-20.32-11.73L42.36,2.31c-1.78-3.08-6.23-3.08-8.01,0l-11.73,20.31L2.31,34.35c-3.08,1.78-3.08,6.23,0,8.01l20.31,11.73,11.73,20.32c1.78,3.08,6.23,3.08,8.01,0l11.73-20.32,20.31-11.73c3.08-1.78,3.08-6.23,0-8.01ZM63.17,38.36h0l-24.8,24.8h0s0,0,0,0h0s0,0,0,0l-24.8-24.8h0,0s0,0,0,0h0l24.81-24.81h0s0,0,0,0h0s0,0,0,0l24.81,24.81h0,0s0,0,0,0Z"/>
        <polygon class="cls-1" points="38.36 23.48 38.36 23.48 23.48 38.36 23.48 38.36 38.36 53.24 38.36 53.24 53.24 38.36 53.24 38.36 38.36 23.48"/>
      </g>
    </g>
  </g>
</svg>