<?xml version="1.0" encoding="UTF-8"?>
<svg width="1632px" height="644px" viewBox="0 0 1632 644" version="1.1" xmlns="http://www.w3.org/2000/svg" xmlns:xlink="http://www.w3.org/1999/xlink">
    <!-- Generator: Sketch 50.2 (55047) - http://www.bohemiancoding.com/sketch -->
    <title>ipfs</title>
    <desc>Created with Sketch.</desc>
    <defs></defs>
    <g id="ipfs" stroke="none" stroke-width="1" fill="none" fill-rule="evenodd">
        <path d="M693.147408,148.870912 L752.136515,148.870912 L752.136515,496.733451 L693.147408,496.733451 L693.147408,148.870912 Z M811.125623,148.870912 L931.423635,148.870912 C957.604194,148.870912 979.476559,151.852591 996.377933,157.484651 C1013.27931,163.116711 1026.86668,171.067855 1036.47727,181.006785 C1046.01367,190.400943 1053.07295,202.011035 1057.02404,214.799146 C1061.01884,227.785295 1063.02989,241.29988 1062.98923,254.886162 C1063.05263,269.343646 1061.04382,283.735647 1057.02404,297.62356 C1053.10596,311.008548 1046.06377,323.27181 1036.47727,333.403707 C1025.18222,344.483562 1011.44936,352.766129 996.377933,357.588435 C979.476559,363.551793 958.266992,366.533472 932.417833,366.533472 L869.120532,366.533472 L869.120532,496.733451 L811.125623,496.733451 L811.125623,148.870912 Z M931.092235,317.832717 C943.498561,318.199524 955.891769,316.748513 967.877577,313.525847 C976.264981,311.308247 983.99469,307.103669 990.412742,301.267834 C995.868553,295.967176 999.863695,289.34869 1002.01172,282.05257 C1004.1979,273.837681 1005.31181,265.374572 1005.32572,256.873948 C1005.52081,248.251874 1004.40337,239.650266 1002.01172,231.364028 C999.808965,224.298526 995.677135,217.987947 990.081343,213.142657 C983.410644,207.705496 975.591805,203.853919 967.214778,201.878537 C955.402299,198.964924 943.255846,197.628111 931.092235,197.902965 L869.783331,197.902965 L869.783331,317.832717 L931.092235,317.832717 Z M1328.44021,148.870912 L1328.44021,199.559453 L1165.39167,199.559453 L1165.39167,297.954857 L1318.82963,297.954857 L1318.82963,348.974696 L1165.39167,348.974696 L1165.39167,496.733451 L1106.40256,496.733451 L1106.40256,148.870912 L1328.44021,148.870912 Z M1415.26688,390.386903 C1417.91807,413.246442 1426.20306,429.811324 1439.79044,440.081552 C1453.37782,450.351779 1474.25598,455.652542 1501.43074,455.652542 C1512.74462,455.978036 1524.03942,454.524697 1534.90209,451.345672 C1542.84118,448.851022 1550.25481,444.920762 1556.77445,439.750254 C1562.09925,435.136479 1566.10214,429.191154 1568.37344,422.522776 C1570.67891,415.695583 1571.79972,408.524578 1571.68743,401.319726 C1571.7537,395.821479 1570.97123,390.345909 1569.36763,385.086141 C1567.53952,379.582623 1564.60762,374.509744 1560.75125,370.177746 C1555.92316,365.168812 1550.18786,361.121603 1543.84987,358.251031 C1535.15043,354.501162 1526.02419,351.83089 1516.67512,350.299887 L1472.26759,342.017446 C1456.38513,339.204685 1440.75783,335.105165 1425.54026,329.759432 C1412.99635,325.462704 1401.32358,318.954885 1391.07471,310.544168 C1381.82418,302.689259 1374.65324,292.675781 1370.19655,281.389975 C1365.22582,267.933912 1362.86395,253.654608 1363.23716,239.315172 C1362.16572,209.795575 1376.29991,181.785981 1400.6853,165.104497 C1413.29259,156.313695 1427.46631,150.016198 1442.44163,146.551829 C1459.59051,142.458078 1477.17223,140.455713 1494.80275,140.588471 C1518.66351,140.588471 1538.87888,143.238852 1555.11746,148.870912 C1569.55986,153.367185 1582.96483,160.68698 1594.554,170.40526 C1604.22546,178.984189 1612.01167,189.475424 1617.42056,201.215942 C1622.59997,212.823729 1626.16792,225.084797 1628.02534,237.658684 L1572.35023,246.272423 C1567.71064,226.725861 1560.08845,212.480062 1548.82087,202.87243 C1537.55328,193.264798 1519.98911,188.626631 1495.46555,188.626631 C1483.76216,188.437605 1472.07871,189.661209 1460.66861,192.270905 C1452.56398,194.207484 1444.91131,197.695128 1438.13344,202.541132 C1432.80307,206.482191 1428.57975,211.731189 1425.87166,217.780825 C1423.48961,223.445917 1422.25075,229.525709 1422.22627,235.670898 C1422.22627,250.91059 1426.20306,262.17471 1434.48805,269.794557 C1442.77303,277.414403 1457.35461,283.046463 1478.23278,287.353332 L1526.2857,296.629667 C1563.07104,303.586917 1589.9144,315.182335 1607.14718,331.415921 C1624.37995,347.649506 1632.99634,371.502937 1632.99634,402.313619 C1633.11375,416.293353 1630.40858,430.153071 1625.04275,443.063231 C1619.66299,455.736808 1611.23977,466.888457 1600.51919,475.530401 C1588.36298,485.404439 1574.40788,492.829872 1559.42565,497.396046 C1540.84855,503.027727 1521.50261,505.710733 1502.09354,505.34719 C1457.68601,505.34719 1422.55767,496.070856 1397.3713,477.186889 C1372.18494,458.302923 1357.93477,429.480027 1355.61497,390.386903 L1415.26688,390.386903 Z" id="Shape" fill="#000000" fill-rule="nonzero"></path>
        <polygon id="Shape" fill="#469EA2" fill-rule="nonzero" points="1 483.471519 279.286071 643.962025 557.572142 483.471519 557.572142 162.490506 279.286071 2 1 162.490506"></polygon>
        <path d="M251.265323,39.7025316 L48.8983244,156.253683 C49.2300278,159.888384 49.2300278,163.545653 48.8983244,167.180354 L250.933574,283.731505 C267.987032,271.147392 291.272724,271.147392 308.326182,283.731505 L510.361432,167.180354 C510.029728,163.545653 510.029728,159.888384 510.361432,156.253683 L308.657931,39.7025316 C291.604473,52.286645 268.318782,52.286645 251.265323,39.7025316 Z M529.934633,199.298143 L327.567634,317.173739 C329.817252,338.14476 318.306439,358.183152 299.037205,366.840423 L299.368954,598.618282 C302.640661,600.058542 305.753681,601.833989 308.657931,603.916061 L510.693181,487.36491 C508.443563,466.393889 519.954377,446.355497 539.22361,437.698226 L539.22361,204.595922 C535.989452,203.082435 532.883031,201.31075 529.934633,199.298143 Z M29.6568721,200.622588 C26.7526214,202.70466 23.6396021,204.480107 20.3678951,205.920367 L20.3678951,439.022671 C39.9020016,447.385811 51.5360825,467.638791 48.8983244,488.689355 L250.933574,605.240506 C253.837825,603.158434 256.950844,601.382987 260.222551,599.942727 L260.222551,366.840423 C240.688445,358.477283 229.054364,338.224303 231.692122,317.173739 L29.6568721,200.622588 Z" id="Shape" fill="#6ACAD1" fill-rule="nonzero"></path>
        <path d="M279.286071,36.0835508 L528.087071,179.697736 L528.087071,466.595198 L279.286071,610.209383 L30.4850718,466.595198 L30.4850718,179.366828 L279.286071,36.0835508 Z M279.286071,2 L1,162.490506 L1,483.471519 L279.286071,643.962025 L557.572142,483.471519 L557.572142,162.490506 L279.286071,2 Z" id="Shape" fill="#469EA2" fill-rule="nonzero"></path>
        <path d="M281.620115,376.919059 L277.639688,376.919059 C263.817134,376.954326 250.55053,371.492091 240.776476,361.741434 C231.002423,351.990776 225.527081,338.755929 225.562433,324.966462 L225.562433,320.995563 C225.527081,307.206096 231.002423,293.971249 240.776476,284.220592 C250.55053,274.469934 263.817134,269.007699 277.639688,269.042966 L281.620115,269.042966 C295.442669,269.007699 308.709273,274.469934 318.483327,284.220592 C328.257381,293.971249 333.732722,307.206096 333.697371,320.995563 L333.697371,324.966462 C333.732722,338.755929 328.257381,351.990776 318.483327,361.741434 C308.709273,371.492091 295.442669,376.954326 281.620115,376.919059 Z M281.620115,590.354887 L277.639688,590.354887 C258.798773,590.298293 241.40621,600.430223 232.196478,616.827548 L279.629902,643.962025 L327.063325,616.827548 C317.853593,600.430223 300.46103,590.298293 281.620115,590.354887 Z M558.591505,429.864211 L556.601292,429.864381 C542.778738,429.829113 529.512134,435.291349 519.73808,445.042006 C509.964026,454.792664 504.488684,468.027511 504.524036,481.816978 L504.524036,485.787877 C504.476334,494.607484 506.764884,503.283158 511.158082,510.936905 L558.591505,483.471519 L558.591505,429.864211 Z M511.158082,135.356029 C506.803772,143.025609 504.517997,151.690763 504.524036,160.505057 L504.524036,164.475956 C504.488684,178.265423 509.964026,191.50027 519.73808,201.250927 C529.512134,211.001585 542.778738,216.46382 556.601292,216.428553 L558.591505,216.428723 L558.591505,162.490506 L511.158082,135.356029 Z M279.629902,2 L232.196478,29.1344774 C241.36177,45.6186511 258.744406,55.8713755 277.639688,55.9380465 L281.620115,55.9380465 C300.46103,55.9946404 317.853593,45.8627108 327.063325,29.4653856 L279.629902,2 Z M48.4334237,135.025121 L1,162.490506 L1,216.428723 L2.99021358,216.428553 C16.8127677,216.46382 30.0793715,211.001585 39.8534252,201.250927 C49.627479,191.50027 55.102821,178.265423 55.067469,164.475956 L55.067469,160.505057 C54.9550799,151.60139 52.6785962,142.857907 48.4334237,135.025121 Z M2.99021358,429.864381 L1,429.864211 L1,483.471519 L48.4334237,510.936905 C52.7877337,503.267324 55.0735088,494.602171 55.067469,485.787877 L55.067469,481.816978 C55.102821,468.027511 49.627479,454.792664 39.8534252,445.042006 C30.0793715,435.291349 16.8127677,429.829113 2.99021358,429.864381 Z" id="Shape" fill="#469EA2" fill-rule="nonzero"></path>
        <polygon id="Shape" fill-opacity="0.15" fill="#083B54" fill-rule="nonzero" points="279.286071 646 279.286071 324.568981 1 164.018987 1 485.450006"></polygon>
        <polygon id="Shape" fill-opacity="0.05" fill="#083B54" fill-rule="nonzero" points="557.572142 483.081 557.572142 161.981013 279.286071 322.531007 279.286071 643.962025"></polygon>
    </g>
</svg>