<?xml version="1.0" encoding="utf-8"?>
<!-- Generator: Adobe Illustrator 22.0.1, SVG Export Plug-In . SVG Version: 6.00 Build 0)  -->
<svg version="1.1" id="Layer_1" xmlns="http://www.w3.org/2000/svg" xmlns:xlink="http://www.w3.org/1999/xlink" x="0px" y="0px"
	 viewBox="0 0 72 72" style="enable-background:new 0 0 72 72;" xml:space="preserve">
<style type="text/css">
	.Northeast{fill:url(#SVGID_1_);}
	.Northwest{fill:url(#SVGID_2_);}
	.Southwest{fill:url(#SVGID_3_);}
	.Southeast{fill:url(#SVGID_4_);}
	.South{fill:url(#SVGID_5_);}
	.West{fill:url(#SVGID_6_);}
	.East{fill:url(#SVGID_7_);}
	.North{fill:url(#SVGID_8_);}
	.st0{fill:url(#SVGID_11_);}
	.st1{fill:url(#SVGID_12_);}
	.st2{fill:url(#SVGID_13_);}
	.st3{fill:url(#SVGID_14_);}
	.st4{fill:url(#SVGID_15_);}
	.st5{fill:url(#SVGID_16_);}
	.st6{fill:url(#SVGID_17_);}
	.st7{fill:url(#SVGID_18_);}
</style>
<linearGradient id="SVGID_1_" gradientUnits="userSpaceOnUse" x1="0" y1="72" x2="-0.7071" y2="72.7071">
	<stop  offset="0" style="stop-color:#5CB6A5"/>
	<stop  offset="0.9982" style="stop-color:#99CC99"/>
</linearGradient>
<linearGradient id="SVGID_2_" gradientUnits="userSpaceOnUse" x1="0" y1="72" x2="-0.7071" y2="72.7071">
	<stop  offset="0" style="stop-color:#F3C07A"/>
	<stop  offset="1" style="stop-color:#ED986C"/>
</linearGradient>
<linearGradient id="SVGID_3_" gradientUnits="userSpaceOnUse" x1="0" y1="72" x2="-0.7071" y2="72.7071">
	<stop  offset="0" style="stop-color:#C5707C"/>
	<stop  offset="1" style="stop-color:#ED986C"/>
</linearGradient>
<linearGradient id="SVGID_4_" gradientUnits="userSpaceOnUse" x1="0" y1="72" x2="0.7071" y2="71.2929">
	<stop  offset="0" style="stop-color:#757FA3"/>
	<stop  offset="1" style="stop-color:#60A4AF"/>
</linearGradient>
<linearGradient id="SVGID_5_" gradientUnits="userSpaceOnUse" x1="0" y1="72" x2="1" y2="72">
	<stop  offset="4.318467e-04" style="stop-color:#F6796C"/>
	<stop  offset="0.2524" style="stop-color:#C5707C"/>
	<stop  offset="0.491" style="stop-color:#927393"/>
	<stop  offset="0.7803" style="stop-color:#757FA3"/>
	<stop  offset="1" style="stop-color:#60A4AF"/>
</linearGradient>
<linearGradient id="SVGID_6_" gradientUnits="userSpaceOnUse" x1="0" y1="72" x2="6.123234e-17" y2="71">
	<stop  offset="0" style="stop-color:#A85684"/>
	<stop  offset="0.2738" style="stop-color:#C35074"/>
	<stop  offset="0.5296" style="stop-color:#E27D69"/>
	<stop  offset="1" style="stop-color:#EDA472"/>
	<stop  offset="1" style="stop-color:#C9BC8F"/>
</linearGradient>
<linearGradient id="SVGID_7_" gradientUnits="userSpaceOnUse" x1="0" y1="72" x2="6.123234e-17" y2="73">
	<stop  offset="0" style="stop-color:#BACC9B"/>
	<stop  offset="0.2943" style="stop-color:#9FCFA1"/>
	<stop  offset="0.5225" style="stop-color:#81BEA5"/>
	<stop  offset="0.7939" style="stop-color:#7EA3A3"/>
	<stop  offset="1" style="stop-color:#8D7997"/>
</linearGradient>
<linearGradient id="SVGID_8_" gradientUnits="userSpaceOnUse" x1="0" y1="72" x2="1" y2="72">
	<stop  offset="0" style="stop-color:#E6AF7B"/>
	<stop  offset="0.4239" style="stop-color:#F3C07A"/>
	<stop  offset="0.7983" style="stop-color:#C5A48A"/>
	<stop  offset="1" style="stop-color:#87A9A0"/>
</linearGradient>
<g>
	<g>
		<g>
			<defs>
				<path id="SVGID_9_" d="M68.8,32.3L50.3,21.6L39.6,3.1c-1.6-2.8-5.7-2.8-7.3,0L21.6,21.6L3.1,32.3c-2.8,1.6-2.8,5.7,0,7.3
					l18.5,10.7l10.7,18.5c1.6,2.8,5.7,2.8,7.3,0l10.7-18.5l18.5-10.7C71.6,38,71.6,34,68.8,32.3z M58.6,36L58.6,36L35.9,58.6v0l0,0
					l0,0v0L13.3,36h0l0,0l0,0h0l22.6-22.6v0l0,0l0,0v0L58.6,36L58.6,36L58.6,36L58.6,36z M49.5,36L49.5,36L35.9,49.6v0L22.4,36h0
					l13.6-13.6v0L49.5,36z"/>
			</defs>
			<clipPath id="SVGID_10_">
				<use xlink:href="#SVGID_9_"  style="overflow:visible;"/>
			</clipPath>
			<g style="clip-path:url(#SVGID_10_);">
				
					<image style="overflow:visible;" width="102" height="102" xlink:href="8FF56DEED4DDF66D.png"  transform="matrix(1 0 0 1 -15 -15)">
				</image>
			</g>
		</g>
		<g>
			<linearGradient id="SVGID_11_" gradientUnits="userSpaceOnUse" x1="21.595" y1="18.4898" x2="58.5881" y2="18.4898">
				<stop  offset="0" style="stop-color:#E6AF7B"/>
				<stop  offset="0.4239" style="stop-color:#F3C07A"/>
				<stop  offset="0.7983" style="stop-color:#C5A48A"/>
				<stop  offset="1" style="stop-color:#87A9A0"/>
			</linearGradient>
			<path class="st0" d="M32.3,3.1L21.6,21.6l14.4-8.3v0l0,0l0,0v0L58.6,36h0l-19-32.9C38,0.3,33.9,0.3,32.3,3.1z"/>
			<linearGradient id="SVGID_12_" gradientUnits="userSpaceOnUse" x1="53.448" y1="21.6332" x2="53.448" y2="58.6289">
				<stop  offset="0" style="stop-color:#BACC9B"/>
				<stop  offset="0.2943" style="stop-color:#9FCFA1"/>
				<stop  offset="0.5225" style="stop-color:#81BEA5"/>
				<stop  offset="0.7939" style="stop-color:#7EA3A3"/>
				<stop  offset="1" style="stop-color:#8D7997"/>
			</linearGradient>
			<path class="st1" d="M50.3,21.6L58.6,36h0l0,0l0,0h0L35.9,58.6v0l32.9-19c2.8-1.6,2.8-5.7,0-7.3L50.3,21.6z"/>
			<linearGradient id="SVGID_13_" gradientUnits="userSpaceOnUse" x1="18.4471" y1="50.3417" x2="18.4471" y2="13.3479">
				<stop  offset="0" style="stop-color:#A85684"/>
				<stop  offset="0.2738" style="stop-color:#C35074"/>
				<stop  offset="0.5296" style="stop-color:#E27D69"/>
				<stop  offset="1" style="stop-color:#EDA472"/>
				<stop  offset="1" style="stop-color:#C9BC8F"/>
			</linearGradient>
			<path class="st2" d="M13.3,36l22.6-22.6v0l-32.9,19c-2.8,1.6-2.8,5.7,0,7.3l18.5,10.7L13.3,36L13.3,36L13.3,36L13.3,36L13.3,36z"
				/>
			<linearGradient id="SVGID_14_" gradientUnits="userSpaceOnUse" x1="13.307" y1="53.4908" x2="50.3034" y2="53.4908">
				<stop  offset="4.318467e-04" style="stop-color:#F6796C"/>
				<stop  offset="0.2524" style="stop-color:#C5707C"/>
				<stop  offset="0.491" style="stop-color:#927393"/>
				<stop  offset="0.7803" style="stop-color:#757FA3"/>
				<stop  offset="1" style="stop-color:#60A4AF"/>
			</linearGradient>
			<path class="st3" d="M35.9,58.6L35.9,58.6L35.9,58.6L35.9,58.6L35.9,58.6L13.3,36h0l19,32.9c1.6,2.8,5.7,2.8,7.3,0l10.7-18.5
				L35.9,58.6z"/>
			<linearGradient id="SVGID_15_" gradientUnits="userSpaceOnUse" x1="32.5551" y1="46.1754" x2="46.1327" y2="32.5978">
				<stop  offset="0" style="stop-color:#757FA3"/>
				<stop  offset="1" style="stop-color:#60A4AF"/>
			</linearGradient>
			<polygon class="st4" points="35.9,36 35.9,49.6 49.5,36 			"/>
			
				<linearGradient id="SVGID_16_" gradientUnits="userSpaceOnUse" x1="-53.8131" y1="-67.3324" x2="-67.3906" y2="-53.7548" gradientTransform="matrix(0 1 -1 0 -27.9885 99.9885)">
				<stop  offset="0" style="stop-color:#C5707C"/>
				<stop  offset="1" style="stop-color:#ED986C"/>
			</linearGradient>
			<polygon class="st5" points="35.9,36 22.4,36 35.9,49.6 			"/>
			
				<linearGradient id="SVGID_17_" gradientUnits="userSpaceOnUse" x1="-153.7433" y1="32.6134" x2="-167.3209" y2="46.1909" gradientTransform="matrix(-1 0 0 -1 -127.977 72)">
				<stop  offset="0" style="stop-color:#F3C07A"/>
				<stop  offset="1" style="stop-color:#ED986C"/>
			</linearGradient>
			<polygon class="st6" points="35.9,36 35.9,22.4 22.4,36 			"/>
			
				<linearGradient id="SVGID_18_" gradientUnits="userSpaceOnUse" x1="-53.7975" y1="132.5436" x2="-67.3751" y2="146.1212" gradientTransform="matrix(0 -1 1 0 -99.9885 -27.9885)">
				<stop  offset="0" style="stop-color:#5CB6A5"/>
				<stop  offset="0.9982" style="stop-color:#99CC99"/>
			</linearGradient>
			<polygon class="st7" points="35.9,36 49.5,36 35.9,22.4 			"/>
		</g>
	</g>
</g>
</svg>
